<?xml version="1.0" encoding="UTF-8" standalone="no"?>
<svg
   xmlns:dc="http://purl.org/dc/elements/1.1/"
   xmlns:cc="http://creativecommons.org/ns#"
   xmlns:rdf="http://www.w3.org/1999/02/22-rdf-syntax-ns#"
   xmlns:svg="http://www.w3.org/2000/svg"
   xmlns="http://www.w3.org/2000/svg"
   xmlns:sodipodi="http://sodipodi.sourceforge.net/DTD/sodipodi-0.dtd"
   xmlns:inkscape="http://www.inkscape.org/namespaces/inkscape"
   viewBox="0 0 1140 360"
   enable-background="new 0 0 1140 360"
   version="1.1"
   id="svg26"
   sodipodi:docname="banner1.svg"
   inkscape:version="0.92.3 (2405546, 2018-03-11)">
  <metadata
     id="metadata32">
    <rdf:RDF>
      <cc:Work
         rdf:about="">
        <dc:format>image/svg+xml</dc:format>
        <dc:type
           rdf:resource="http://purl.org/dc/dcmitype/StillImage" />
      </cc:Work>
    </rdf:RDF>
  </metadata>
  <defs
     id="defs30" />
  <sodipodi:namedview
     pagecolor="#ffffff"
     bordercolor="#666666"
     borderopacity="1"
     objecttolerance="10"
     gridtolerance="10"
     guidetolerance="10"
     inkscape:pageopacity="0"
     inkscape:pageshadow="2"
     inkscape:window-width="1920"
     inkscape:window-height="1017"
     id="namedview28"
     showgrid="false"
     inkscape:zoom="1.094775"
     inkscape:cx="201.19197"
     inkscape:cy="117.21864"
     inkscape:window-x="-8"
     inkscape:window-y="-8"
     inkscape:window-maximized="1"
     inkscape:current-layer="svg26"
     inkscape:measure-start="258.501,168.071"
     inkscape:measure-end="511.521,152.543" />
  <path
     d="M -3.8317054e-6,-1.4801146e-7 H 1140.0001 V 360 H -3.8317054e-6 Z"
     id="path22"
     inkscape:connector-curvature="0"
     style="fill:#56b4d9" />
  <path
     d="m 203.29,114.514 h -3.996 l -3.266,-8.637 H 193.07649 182.965 l -3.072,8.637 h -4.018 l 11.816,-30.809 h 3.738 z m -8.443,-11.881 -4.834,-13.127 c -0.158,-0.43 -0.315,-1.117 -0.473,-2.063 h -0.086 c -0.144,0.874 -0.308,1.562 -0.494,2.063 l -4.791,13.127 z m 196.729,0.236 c 10.57702,-5.686646 15.35904,0.0169 17.12681,11.645 0.28929,15.79217 -3.77089,22.04602 -20.73581,0 V 83.705 h 8.465 c 3.294,0 5.847,0.802 7.659,2.406 1.812,1.604 2.718,3.867 2.718,6.789 0,2.922 -1.006,5.313 -3.019,7.176 -2.013,1.862 -4.73,2.793 -8.153,2.793 z m 0,-15.898 v 12.633 h 3.781 c 2.492,0 4.394,-0.569 5.704,-1.708 1.31,-1.139 1.966,-2.746 1.966,-4.823 0,-4.067 -2.406,-6.102 -7.219,-6.102 z M 252.745,72.986 c -0.659,0 -1.221,-0.236 -1.687,-0.709 -0.466,-0.473 -0.698,-1.038 -0.698,-1.697 0,-0.659 0.232,-1.229 0.698,-1.708 0.465,-0.479 1.027,-0.72 1.687,-0.72 0.673,0 1.246,0.24 1.719,0.72 0.473,0.48 0.709,1.049 0.709,1.708 0,0.659 -0.236,1.225 -0.709,1.697 -0.473,0.472 -1.047,0.709 -1.719,0.709 z m -0.993,43.528 h -4.426 L 231.471,91.957 c -0.401,-0.616 -0.73,-1.261 -0.988,-1.934 h -0.129 c 0.114,0.659 0.172,2.069 0.172,4.232 v 22.258 h -3.609 V 85.705 h 4.684 l 15.426,24.17 c 0.645,1.003 1.06,1.69 1.246,2.063 h 0.086 c -0.144,-0.888 -0.215,-2.399 -0.215,-4.533 v -21.7 h 3.609 v 30.809 z m 23.79,0 H 259.214 V 85.705 h 15.641 v 3.266 h -12.031 v 10.248 h 11.129 v 3.244 h -11.129 v 10.785 h 12.719 v 3.266 z m -131.844,-3.289 c -2.277,1.203 -5.113,1.805 -8.508,1.805 -4.383,0 -7.892,-1.411 -10.527,-4.232 -2.636,-2.821 -3.953,-6.524 -3.953,-11.107 0,-4.927 1.482,-8.909 4.447,-11.945 2.965,-3.036 6.725,-4.555 11.279,-4.555 2.922,0 5.342,0.423 7.262,1.268 v 3.846 c -2.206,-1.231 -4.641,-1.848 -7.305,-1.848 -3.538,0 -6.406,1.182 -8.604,3.545 -2.199,2.363 -3.298,5.521 -3.298,9.475 0,3.753 1.027,6.742 3.083,8.97 2.055,2.228 4.751,3.341 8.089,3.341 3.094,0 5.772,-0.688 8.035,-2.063 z M 297.521,98.08 c -0.616,-0.473 -1.504,-0.709 -2.664,-0.709 -1.504,0 -2.761,0.709 -3.771,2.127 -1.01,1.418 -1.515,3.352 -1.515,5.801 v 11.215 h -3.523 v -22 h 3.523 v 4.533 h 0.086 c 0.501,-1.547 1.268,-2.754 2.299,-3.62 1.031,-0.866 2.184,-1.3 3.459,-1.3 0.917,0 1.618,0.101 2.105,0.301 v 3.652 z m 82.89,6.315 h -15.533 c 0.057,2.449 0.716,4.34 1.977,5.672 1.26,1.332 2.993,1.998 5.199,1.998 2.478,0 4.755,-0.816 6.832,-2.449 v 3.309 c -1.934,1.403 -4.49,2.105 -7.67,2.105 -3.108,0 -5.55,-0.999 -7.326,-2.997 -1.776,-1.998 -2.664,-4.809 -2.664,-8.433 0,-3.423 0.97,-6.213 2.911,-8.368 1.94,-2.155 4.351,-3.233 7.229,-3.233 2.878,0 5.106,0.931 6.682,2.793 1.575,1.862 2.363,4.447 2.363,7.756 z m -3.61,-2.987 c -0.015,-2.034 -0.505,-3.616 -1.472,-4.748 -0.967,-1.132 -2.31,-1.697 -4.028,-1.697 -1.662,0 -3.072,0.595 -4.232,1.783 -1.16,1.188 -1.876,2.743 -2.148,4.662 z M 431.5,62 h -1 v 74 h 1 z m -84.408,54.095 H 345.25 L 338.085,91.86 c -0.359,-1.243 -0.562,-2.253 -0.606,-3.032 h -0.09 c -0.045,0.659 -0.277,1.655 -0.696,2.987 l -7.637,24.28 h -1.842 l -9.568,-32.209 h 2.493 l 7.345,25.808 c 0.329,1.168 0.562,2.119 0.696,2.853 h 0.09 c 0.09,-0.554 0.352,-1.505 0.786,-2.853 l 7.951,-25.808 h 1.123 l 7.3,25.808 c 0.344,1.198 0.576,2.149 0.696,2.853 h 0.09 c 0.075,-0.419 0.194,-0.898 0.359,-1.438 l 7.547,-27.223 h 2.403 z M 215.537,87.3 c -0.449,0 -0.846,-0.165 -1.19,-0.494 -0.345,-0.329 -0.517,-0.749 -0.517,-1.258 0,-0.494 0.176,-0.895 0.528,-1.202 0.352,-0.307 0.745,-0.46 1.179,-0.46 0.464,0 0.872,0.15 1.224,0.449 0.352,0.3 0.528,0.704 0.528,1.213 0,0.479 -0.172,0.891 -0.517,1.235 -0.344,0.345 -0.756,0.517 -1.235,0.517 z m -1.011,28.795 v -23 h 2.066 v 23 z m 338.239,0 v -13.387 c 0,-5.525 -1.992,-8.288 -5.975,-8.288 -2.216,0 -4.036,0.813 -5.458,2.437 -1.423,1.625 -2.134,3.635 -2.134,6.031 v 13.207 h -2.066 v -23 h 2.066 v 4.178 h 0.09 c 1.677,-3.159 4.297,-4.739 7.861,-4.739 2.485,0 4.387,0.828 5.705,2.482 1.317,1.655 1.977,4.017 1.977,7.086 v 13.993 z m 24.485,0 v -4.178 h -0.09 c -0.748,1.453 -1.855,2.605 -3.324,3.459 -1.467,0.854 -3.122,1.28 -4.963,1.28 -2.83,0 -5.14,-1.033 -6.929,-3.1 -1.79,-2.066 -2.684,-4.919 -2.684,-8.558 0,-3.713 0.977,-6.719 2.931,-9.018 1.954,-2.298 4.488,-3.448 7.603,-3.448 3.445,0 5.9,1.415 7.367,4.245 h 0.09 V 82.044 h 2.066 v 34.051 z m 0,-13.993 c 0,-2.141 -0.678,-3.957 -2.031,-5.447 -1.355,-1.49 -3.18,-2.235 -5.47,-2.235 -2.411,0 -4.402,0.925 -5.975,2.774 -1.572,1.85 -2.358,4.391 -2.358,7.625 0,3.175 0.708,5.626 2.123,7.356 1.415,1.73 3.238,2.594 5.469,2.594 2.62,0 4.649,-0.812 6.086,-2.437 1.438,-1.625 2.156,-3.605 2.156,-5.941 z m 17.838,14.554 c -3.354,0 -6.009,-1.104 -7.962,-3.313 -1.955,-2.208 -2.932,-5.08 -2.932,-8.614 0,-3.818 1.021,-6.806 3.066,-8.962 2.043,-2.156 4.735,-3.234 8.074,-3.234 3.279,0 5.87,1.071 7.771,3.212 1.901,2.142 2.853,5.106 2.853,8.895 0,3.579 -0.97,6.477 -2.909,8.692 -1.938,2.216 -4.592,3.324 -7.961,3.324 z m 0.157,-22.236 c -2.71,0 -4.87,0.914 -6.48,2.74 -1.609,1.827 -2.414,4.365 -2.414,7.614 0,3.01 0.786,5.428 2.358,7.255 1.572,1.827 3.721,2.74 6.446,2.74 2.771,0 4.904,-0.898 6.401,-2.695 1.497,-1.797 2.246,-4.29 2.246,-7.479 0,-3.279 -0.745,-5.795 -2.235,-7.547 -1.489,-1.752 -3.596,-2.628 -6.322,-2.628 z m 35.087,21.675 H 628.4 l -5.009,-17.34 c -0.135,-0.479 -0.255,-1.123 -0.359,-1.932 h -0.112 c -0.03,0.345 -0.18,0.974 -0.449,1.887 l -5.615,17.385 h -1.932 l -6.94,-23 h 2.291 l 5.346,18.351 c 0.135,0.479 0.239,1.123 0.314,1.932 h 0.18 c 0.03,-0.434 0.172,-1.078 0.427,-1.932 l 5.84,-18.351 h 1.415 l 5.211,18.351 c 0.12,0.435 0.225,1.078 0.314,1.932 h 0.18 c 0,-0.434 0.127,-1.078 0.382,-1.932 l 5.458,-18.351 h 2.134 z m 9.616,-1.011 v -2.493 c 0.778,0.674 1.722,1.206 2.83,1.595 1.108,0.39 2.066,0.584 2.875,0.584 3.608,0 5.413,-1.475 5.413,-4.425 0,-1.018 -0.396,-1.887 -1.19,-2.605 -0.794,-0.718 -2.081,-1.46 -3.863,-2.224 -2.201,-0.958 -3.747,-1.95 -4.638,-2.976 -0.892,-1.025 -1.337,-2.272 -1.337,-3.74 0,-1.872 0.715,-3.384 2.146,-4.537 1.43,-1.153 3.192,-1.729 5.289,-1.729 1.977,0 3.669,0.404 5.076,1.213 v 2.336 c -1.707,-1.108 -3.474,-1.662 -5.301,-1.662 -1.513,0 -2.732,0.393 -3.661,1.179 -0.929,0.786 -1.393,1.808 -1.393,3.066 0,1.093 0.292,1.98 0.876,2.662 0.584,0.682 1.872,1.464 3.863,2.347 2.396,1.078 4.043,2.078 4.941,2.999 0.898,0.921 1.348,2.145 1.348,3.672 0,1.827 -0.686,3.335 -2.055,4.526 -1.371,1.19 -3.261,1.786 -5.672,1.786 -2.215,-0.002 -4.064,-0.526 -5.547,-1.574 z m 80.185,1.011 V 83.886 h 2.224 v 30.188 h 12.915 v 2.021 z M 740.935,87.3 c -0.449,0 -0.846,-0.165 -1.19,-0.494 -0.345,-0.329 -0.517,-0.749 -0.517,-1.258 0,-0.494 0.176,-0.895 0.528,-1.202 0.352,-0.307 0.744,-0.46 1.179,-0.46 0.464,0 0.872,0.15 1.224,0.449 0.353,0.3 0.528,0.704 0.528,1.213 0,0.479 -0.172,0.891 -0.517,1.235 -0.345,0.345 -0.756,0.517 -1.235,0.517 z m -1.011,28.795 v -23 h 2.066 v 23 z m -573.762,-2 v -13.387 c 0,-5.525 -1.991,-8.288 -5.975,-8.288 -2.216,0 -4.035,0.813 -5.458,2.437 -1.423,1.625 -2.134,3.635 -2.134,6.031 v 13.207 h -2.066 l -0.45671,-39.441735 2.29436,2.968646 L 152.595,95.273 h 0.09 c 1.677,-3.159 4.298,-4.739 7.861,-4.739 2.485,0 4.388,0.828 5.705,2.482 1.317,1.655 1.977,4.017 1.977,7.086 v 13.993 z m 621.34,2 v -4.178 h -0.09 c -1.603,3.16 -4.073,4.739 -7.412,4.739 -5.436,0 -8.153,-3.421 -8.153,-10.265 V 93.095 h 2.089 v 12.78 c 0,3.115 0.513,5.376 1.539,6.783 1.025,1.408 2.639,2.111 4.84,2.111 2.142,0 3.875,-0.786 5.199,-2.358 1.326,-1.572 1.988,-3.668 1.988,-6.289 V 93.095 h 2.066 v 23 z m 15.727,-11.276 7.502,11.275 h -2.628 l -6.064,-9.703 h -0.09 l -0.809,1.28 c -0.104,0.18 -0.232,0.382 -0.382,0.606 l -5.076,7.816 h -2.516 l 7.682,-11.23 -7.547,-11.77 h 2.426 l 5.121,8.243 c 0.659,1.063 1.056,1.722 1.19,1.977 h 0.09 l 1.146,-1.887 5.346,-8.333 h 2.426 z m 85.656,11.837 c -4.552,0 -8.18,-1.512 -10.883,-4.537 -2.702,-3.024 -4.054,-6.955 -4.054,-11.792 0,-5.136 1.389,-9.25 4.167,-12.342 2.777,-3.092 6.569,-4.638 11.376,-4.638 4.343,0 7.857,1.486 10.546,4.458 2.688,2.973 4.031,6.87 4.031,11.691 0,5.331 -1.378,9.523 -4.133,12.578 -2.755,3.055 -6.438,4.582 -11.05,4.582 z m 0.224,-31.288 c -3.743,0 -6.824,1.355 -9.242,4.065 -2.419,2.71 -3.628,6.259 -3.628,10.646 0,4.433 1.146,7.962 3.437,10.59 2.291,2.628 5.346,3.942 9.164,3.942 3.983,0 7.135,-1.299 9.456,-3.897 2.321,-2.598 3.481,-6.218 3.481,-10.86 0,-4.552 -1.135,-8.104 -3.402,-10.658 -2.27,-2.551 -5.357,-3.828 -9.266,-3.828 z m 19.702,29.581 v -2.538 c 2.306,1.468 4.642,2.201 7.008,2.201 2.516,0 4.425,-0.52 5.728,-1.561 1.303,-1.041 1.954,-2.497 1.954,-4.369 0,-1.647 -0.438,-2.961 -1.313,-3.942 -0.877,-0.98 -2.774,-2.317 -5.694,-4.009 -3.265,-1.901 -5.331,-3.493 -6.199,-4.773 -0.868,-1.28 -1.303,-2.759 -1.303,-4.436 0,-2.276 0.884,-4.208 2.65,-5.795 1.767,-1.587 4.125,-2.381 7.075,-2.381 1.917,0 3.833,0.322 5.75,0.966 v 2.336 c -1.887,-0.854 -3.9,-1.28 -6.042,-1.28 -2.187,0 -3.919,0.554 -5.2,1.662 -1.279,1.108 -1.92,2.516 -1.92,4.223 0,1.647 0.438,2.958 1.314,3.931 0.875,0.974 2.766,2.299 5.671,3.976 3.01,1.707 5.013,3.223 6.009,4.548 0.995,1.325 1.493,2.849 1.493,4.571 0,2.471 -0.857,4.485 -2.571,6.042 -1.715,1.558 -4.137,2.336 -7.267,2.336 -1.108,0 -2.385,-0.172 -3.829,-0.517 -1.446,-0.345 -2.551,-0.742 -3.314,-1.191 z m 40.5,1.146 -7.412,-12.286 c -0.464,-0.764 -0.861,-1.512 -1.19,-2.246 h -0.112 c -0.404,0.824 -0.831,1.572 -1.28,2.246 l -7.547,12.286 h -2.673 l 10.175,-16.239 -9.568,-15.97 h 2.673 l 7.21,12.106 c 0.374,0.629 0.764,1.348 1.168,2.156 h 0.09 l 1.19,-2.156 7.165,-12.106 h 2.583 l -9.658,15.925 9.883,16.284 z"
     id="path24"
     inkscape:connector-curvature="0"
     style="fill:#ffffff"
     sodipodi:nodetypes="cccccccccccccccccccccssscscccsssscssscssssscccccscccccccscccccccccccccccccccscsssccscscscccsssccccccssccccccsccssscscsccsssccccccccccccccccccccccccccccccscssscscsccccccsscsccccccscsccccccscscsccccccscscssscssscscscscsscssssscsccccccccccccccccccccccccccsssccscsccsssscssccccccccccscssscscsccccccsscsccccccscscccccssccscscscccccccccccccccccccccccscscscsssscssssscsccsssccsscsccscscccscsccccccccccccccccccccc" />
  <path
     style="fill:#ffffff"
     id="path4625"
     d="m 158.07907,54.83533 c -3.13997,1.05706 -6.02201,2.722992 -9.0912,3.952885 -0.35238,0.188455 -0.70476,0.37691 -1.05714,0.565365 -0.31832,0.152772 -0.64291,0.293114 -0.95496,0.458315 -0.2935,0.155375 -1.14848,0.66742 -0.86017,0.502619 17.73719,-10.138939 13.44351,-8.037808 9.49818,-5.238714 -1.24695,0.896995 -2.50713,1.771838 -3.75898,2.662999 -1.07318,0.992032 -2.05298,2.085703 -2.99401,3.202952 -0.99728,1.487437 -2.28264,2.749945 -3.61421,3.935451 -1.32931,1.28742 -2.73494,2.487899 -4.0948,3.742714 -1.04028,1.289238 -2.15579,2.517916 -3.21857,3.790935 -1.02407,1.213307 -2.07945,2.386221 -3.25596,3.452856 -1.19709,1.282124 -2.53472,2.397939 -3.87563,3.522269 -1.2409,1.10442 -2.58347,2.057535 -3.9622,2.979599 -1.54262,1.20482 -3.04601,2.473207 -4.4563,3.832439 -1.24888,1.306246 -2.58031,2.536619 -3.72714,3.936332 -0.82961,1.27972 -1.77103,2.469494 -2.70145,3.67353 -0.82262,1.352121 -1.72979,2.67071 -2.37088,4.121294 -0.55267,1.475946 -1.3551,2.83255 -1.8765,4.32031 -0.45923,1.64426 -0.62902,3.36733 -0.53514,5.06926 0.24336,1.76371 0.462,3.54111 1.12594,5.20329 0.60237,1.52994 1.27461,3.0129 2.06437,4.45332 0.8274,1.19332 1.56253,2.3971 2.53538,3.48248 1.47914,1.28911 3.07664,2.43228 4.577,3.6914 1.62906,1.37911 3.08553,2.90243 4.72154,4.28436 1.477,1.21193 3.12131,2.19992 4.63943,3.35067 1.33813,1.36078 2.949,2.37491 4.44114,3.54124 1.51281,0.99566 2.91908,2.13428 4.40035,3.17152 1.2756,1.05378 2.65944,2.02553 4.11257,2.83139 1.7086,0.81075 3.40317,1.63927 5.10991,2.4577 1.74273,0.84781 3.48331,1.55745 5.39578,1.90265 0.77499,0.0102 1.36479,-0.15826 2.0279,-0.51522 0.19434,-0.10462 0.78497,-0.40341 0.59335,-0.29389 -11.82682,6.75949 -14.67819,8.68717 -10.57171,5.94049 1.28234,-1.18651 2.16115,-2.74082 3.17247,-4.15326 0.91903,-1.47733 1.7123,-3.03323 2.5197,-4.57431 0.90814,-1.49364 1.74981,-2.98951 2.23602,-4.67412 0.19543,-0.59337 0.009,-1.01619 -0.11816,-1.57894 -1.19276,-5.29221 3.47207,-2.71084 12.2645,-6.9519 0.9195,1.34258 1.02511,2.99442 1.44851,4.52413 0.47994,1.64124 0.62321,3.34487 0.71434,5.04389 0.12566,1.67746 -0.0549,3.29557 -1.13738,4.62243 -4.85193,3.87707 -10.2633,7.76943 -16.46208,8.78485 -1.84954,0.23575 -3.7179,0.22971 -5.57901,0.23365 -2.03348,0.0788 -3.86944,-0.72091 -5.57261,-1.75278 -1.96402,-1.09181 -3.8036,-2.42456 -5.53643,-3.85128 -1.87096,-1.2226 -3.66851,-2.60192 -5.29526,-4.13625 -2.061,-1.55584 -3.69619,-3.50419 -5.39331,-5.42449 -1.48892,-1.2701 -2.63545,-2.85533 -3.9735,-4.26841 -1.1835,-1.45038 -2.218,-3.00013 -3.35201,-4.48791 -1.06455,-1.41521 -2.16936,-2.78401 -2.87015,-4.42087 -0.89938,-1.56493 -1.13049,-3.35666 -1.50852,-5.08825 -0.53808,-1.95647 -1.19475,-3.84924 -1.54406,-5.85487 -0.35597,-2.0185 -0.2747,-4.07521 -0.47663,-6.10608 -0.3301,-1.84942 -0.58225,-3.70628 -0.72089,-5.57968 -0.11257,-1.835654 -0.11742,-3.675514 -0.12337,-5.513909 -0.005,-2.26481 0.85102,-4.26923 1.81692,-6.264838 1.30436,-2.425131 2.7934,-4.71109 4.56805,-6.814356 1.37367,-1.679945 3.13668,-2.954106 4.72873,-4.408037 1.35015,-1.270267 2.81607,-2.406179 4.20455,-3.6317 1.52125,-1.630519 3.34289,-2.901062 5.18035,-4.141356 2.0733,-1.559954 4.25576,-2.967389 6.4012,-4.425641 1.86116,-1.377909 3.81863,-2.614342 5.7289,-3.921284 0.24146,-0.192358 0.48893,-0.377401 0.72438,-0.577074 0.17723,-0.150297 0.3506,-0.305838 0.51287,-0.472178 1.71015,-1.753117 -2.05072,1.955687 1.01618,0.684003 3.91403,-1.622947 7.49449,-3.955634 11.24174,-5.933451 -1.55861,0.943339 -3.0565,1.986902 -4.43047,3.184612 -1.2621,1.233264 -2.49192,2.510293 -3.63839,3.8521 -0.89796,1.293826 -2.10466,2.319297 -3.16238,3.478901 -1.04213,1.144723 -1.93431,2.401445 -2.72517,3.7297 -0.54596,1.246975 -1.44968,2.280447 -2.05138,3.491387 -0.45156,1.305708 -1.25779,2.428172 -1.88786,3.643989 -0.72479,1.255975 -1.64505,2.37528 -2.42231,3.59819 -0.978,1.718414 -2.14212,3.317818 -3.26304,4.944049 -0.97032,1.433435 -1.92614,2.863979 -2.95462,4.257929 -1.16653,1.349879 -2.01771,2.939459 -2.74101,4.560928 -0.81305,1.574262 -1.37847,3.210861 -1.82334,4.918509 -0.56135,1.455147 -0.83462,2.968677 -0.9804,4.513907 -0.0461,1.63762 -0.44183,3.23644 -0.80759,4.8258 -0.58535,1.59342 -1.41411,3.09288 -2.1607,4.61789 -0.90579,1.57404 -1.32892,3.29948 -1.55912,5.08207 -0.2353,1.73068 -0.18123,3.41321 0.26276,5.09868 0.9276,2.16002 1.96485,4.29208 3.25915,6.25745 1.13311,1.71581 2.41076,3.34281 3.74677,4.90696 1.36644,1.11569 2.31067,2.61997 3.50115,3.89797 1.03866,0.81849 2.1265,1.58661 3.06709,2.52022 1.02195,0.71941 2.22081,1.28254 3.41697,1.67325 1.46463,0.21242 2.80849,0.80332 4.26417,1.07186 1.62026,0.64845 3.33353,0.91398 5.06025,1.06795 1.6306,0.14825 3.19121,0.65982 4.82651,0.85328 1.51697,0.31635 2.62245,-0.6426 3.95393,-1.12307 0,0 -10.69656,8.4136 -10.69656,8.4136 v 0 c -1.41932,0.63024 -2.81643,0.87553 -4.36685,0.54086 -1.60068,-0.26959 -3.16426,-0.74261 -4.79297,-0.82721 -1.75621,-0.24044 -3.45846,-0.66783 -5.15618,-1.17263 -1.47123,-0.37292 -2.92272,-0.82922 -4.38407,-1.23301 -1.30784,-0.56299 -2.65927,-1.14071 -3.71404,-2.1195 -1.01324,-0.90473 -2.12245,-1.69366 -3.11497,-2.62278 -1.14803,-1.32767 -2.15958,-2.77525 -3.48227,-3.946 -1.37405,-1.60774 -2.67629,-3.28717 -3.80789,-5.07493 -1.34839,-2.09105 -2.46901,-4.32082 -3.49666,-6.58453 -0.56807,-1.83009 -0.74158,-3.65341 -0.51046,-5.56449 0.16848,-1.90706 0.45848,-3.80939 1.34617,-5.53368 0.78104,-1.44216 1.35223,-2.99285 2.2671,-4.35958 0.48406,-1.46543 0.76597,-3.06605 0.925,-4.59075 0.0975,-1.62554 0.23482,-3.26623 0.83289,-4.79819 0.65184,-1.65144 0.73046,-3.52661 1.81579,-5.02287 0.6374,-1.741634 1.47691,-3.418062 2.53518,-4.94024 1.20682,-1.243513 2.10185,-2.733986 3.01272,-4.196706 1.22376,-1.502861 2.2983,-3.180269 3.28248,-4.841793 0.77979,-1.217265 1.55622,-2.425787 2.40256,-3.579622 0.7977,-1.039798 1.28248,-2.30762 2.00221,-3.405786 0.40724,-1.378533 1.20515,-2.432804 2.00455,-3.602686 0.59592,-1.472874 1.54724,-2.851943 2.62174,-4.012301 0.91356,-1.285285 2.07002,-2.321325 3.18495,-3.40639 0.93426,-1.544264 2.35413,-2.756506 3.57339,-4.072413 1.24694,-1.398372 2.76955,-2.415222 4.27854,-3.500172 4.22762,-2.25549 8.27905,-4.877955 12.68285,-6.766469 0.27461,-0.117763 0.78529,1.106352 0.61421,1.491255 -0.067,0.150665 -0.23783,0.229812 -0.34023,0.359038 -0.16654,0.210174 -0.28769,0.455238 -0.46465,0.656718 -0.21065,0.239835 -0.46187,0.440743 -0.6928,0.661114 -1.78641,1.509548 -3.92646,2.511945 -5.7376,3.996297 -2.12909,1.484033 -4.31359,2.874279 -6.42789,4.377176 -1.67463,1.387395 -3.7052,2.319077 -5.2123,3.94324 -1.23328,1.400786 -2.80711,2.444005 -4.19682,3.675636 -1.55312,1.50927 -3.2643,2.787648 -4.82687,4.282614 -0.57561,0.679633 -1.21202,1.307081 -1.77356,1.998388 -1.13673,1.399427 -1.88513,3.064267 -2.91171,4.53723 -0.9909,1.78092 -1.87178,3.598302 -2.05242,5.655756 0.002,1.812351 -1.8e-4,3.625677 0.0832,5.436544 0.10861,1.851188 0.31445,3.691692 0.6781,5.511942 0.2992,2.00806 0.11849,4.05608 0.43816,6.06791 0.3075,1.98696 0.95435,3.84566 1.51816,5.76676 0.40878,1.64924 0.52184,3.39154 1.41984,4.8844 0.61217,1.54242 1.71124,2.79579 2.68314,4.12406 1.10344,1.45215 2.10046,2.9756 3.27885,4.36882 1.33245,1.43311 2.50736,3.00621 3.96425,4.3252 1.65494,1.89225 3.29626,3.76229 5.29933,5.30715 1.66691,1.46578 3.46743,2.77637 5.2851,4.04878 1.70568,1.3561 3.47952,2.64033 5.40977,3.66125 1.63338,0.84157 3.3357,1.29327 5.18937,1.15872 1.81091,-0.0277 3.63773,-0.0559 5.41257,-0.45809 0.74952,-0.20679 0.98108,-0.24315 1.69756,-0.55081 0.27321,-0.11733 1.05838,-0.54107 0.8021,-0.39029 -19.02524,11.19357 -13.56125,7.62882 -9.43186,5.54255 1.52065,-1.0703 1.70875,-1.6468 1.64628,-3.5704 -0.064,-1.60116 -0.15157,-3.21332 -0.58437,-4.76559 -0.36537,-1.29447 -0.46462,-2.70074 -1.11165,-3.88122 3.88757,-2.24506 7.8173,-4.41866 11.66271,-6.73519 0.0412,-0.0248 -0.34918,-0.3509 -0.33857,0.0374 0.0204,0.7461 0.66814,1.41712 0.38157,2.20844 -0.3709,1.82856 -1.04917,3.46491 -2.07017,5.03029 -0.9589,1.4766 -1.64623,3.10822 -2.48106,4.66214 -0.97847,1.5054 -2.0901,2.91814 -3.01841,4.46188 -3.26039,3.63371 -10.04745,8.57824 -15.80512,7.73269 -1.94187,-0.49488 -3.7491,-1.30396 -5.55844,-2.15648 -1.75686,-0.80021 -3.46129,-1.69883 -5.19156,-2.55373 -1.45237,-0.89185 -2.8693,-1.85632 -4.18506,-2.94039 -1.45885,-1.08637 -2.93072,-2.15303 -4.41333,-3.20707 -1.51294,-1.13082 -3.02835,-2.24945 -4.43393,-3.51547 -1.57486,-1.12025 -3.16187,-2.21899 -4.65987,-3.44409 -1.63306,-1.37459 -3.06138,-2.93595 -4.72569,-4.26628 -1.57138,-1.27837 -3.22325,-2.46513 -4.70257,-3.85287 -1.04036,-1.16335 -1.83501,-2.45677 -2.69999,-3.74962 -0.80759,-1.48833 -1.52069,-3.00995 -2.1313,-4.59122 -0.735465,-1.77761 -1.030023,-3.65663 -1.307684,-5.55207 -0.244623,-1.84142 -0.04422,-3.71472 0.292623,-5.53664 0.395146,-1.56078 1.063771,-2.98176 1.836211,-4.38859 0.48019,-1.61591 1.39693,-2.95861 2.24034,-4.400795 0.73906,-1.349531 1.8966,-2.381549 2.69612,-3.699086 0.91262,-1.623071 2.35502,-2.851626 3.67231,-4.146724 1.29644,-1.528071 2.91376,-2.692459 4.33997,-4.086831 1.32485,-0.976499 2.83227,-1.709795 3.96526,-2.924078 1.42056,-0.97938 2.81161,-2.093371 3.92166,-3.421922 1.1754,-1.047831 2.38185,-2.047257 3.30738,-3.330114 1.16642,-1.162346 2.27014,-2.473337 3.19937,-3.828759 1.23517,-1.406396 2.75112,-2.498859 4.08425,-3.80319 1.22989,-1.221183 2.64339,-2.261918 3.70502,-3.658253 0.74034,-1.309286 1.88555,-2.350076 2.88091,-3.459625 1.0134,-1.25401 2.58432,-1.714736 3.66358,-2.932125 2.63517,-1.39776 -1.27316,0.719046 1.40875,-0.886553 5.02011,-3.005431 9.88211,-6.327105 15.24924,-8.679954 3.04806,-1.336374 6.01939,-2.86767 9.19198,-3.902476 0,0 -10.70983,8.320425 -10.70983,8.320425 z"
     inkscape:connector-curvature="0" />
  <path
     style="fill:#ffffff"
     id="path4627"
     d="m 159.78947,63.392508 c 1.18207,2.603883 2.59872,5.068794 3.50609,7.791191 0.56456,1.957349 0.81068,3.996582 0.72948,6.029887 -0.26935,1.583258 -0.57318,3.152554 -0.72328,4.753471 -0.13893,1.909288 -0.14878,3.825102 -0.15642,5.738506 -0.0275,1.726539 -0.45803,3.371738 -1.0419,4.980713 -0.54575,1.511512 -0.65245,3.11747 -0.73073,4.707777 -0.12641,1.731839 0.0363,3.460357 0.52008,5.127467 0.59594,1.44516 1.36974,2.74111 1.74459,4.27859 0.37164,1.99964 0.4133,4.04 0.43177,6.06782 0.0533,1.85771 -0.10337,3.72281 0.0845,5.57368 0,0 -12.0249,6.30213 -12.0249,6.30213 v 0 c -0.24071,-1.89214 -0.0748,-3.80351 -0.1324,-5.70772 -0.0249,-1.93549 -0.0219,-3.88202 -0.32173,-5.7994 -0.31682,-1.52257 -1.14534,-2.75478 -1.69977,-4.18811 -0.572,-1.78109 -0.83128,-3.66499 -0.72882,-5.535 0.0492,-1.69366 0.10508,-3.40477 0.54296,-5.051735 0.48479,-1.530759 1.18061,-2.96283 1.27413,-4.60409 0.003,-1.939529 -0.0187,-3.880539 0.084,-5.818174 0.10549,-1.613496 0.2753,-3.223249 0.70121,-4.788745 0.36001,-1.825839 -0.0505,-3.754235 -0.42236,-5.550392 -0.81319,-2.682145 -2.16218,-5.105175 -3.42901,-7.593418 0,0 11.79247,-6.714448 11.79247,-6.714448 z"
     inkscape:connector-curvature="0" />
  <path
     style="fill:#ffffff"
     id="path4631"
     d="m 162.10184,119.97066 c 0.30748,-2.91084 0.58624,-5.81025 1.10445,-8.69254 0.37372,-1.87639 0.52975,-3.78093 0.60741,-5.68918 0.0531,-1.80483 0.0451,-3.61072 0.043,-5.41612 -0.0166,-1.866763 -0.0658,-3.722733 0.20412,-5.573527 0.16452,-1.792914 0.92856,-3.36074 1.93328,-4.822578 0.92673,-0.937406 0.87508,-2.417846 1.59777,-3.444027 14.69322,-6.951464 13.97675,-7.981012 10.22671,-2.104402 -0.78377,1.212359 -1.75486,2.273372 -2.69056,3.364498 -0.89062,0.953675 -1.85133,1.838577 -2.73877,2.794656 -4.522,4.736775 -9.95661,7.53144 -16.06518,7.788286 -0.59109,0.08536 -1.19518,-0.04313 -1.78644,0.02826 -0.25575,0.03088 -0.97254,0.318476 -0.74898,0.190476 13.47892,-7.717497 14.674,-8.559024 10.82055,-5.90968 0,0 -12.32757,5.75654 -12.32757,5.75654 v 0 c 0.40452,-6.196224 9.40661,-8.02019 14.97424,-8.134145 0.79231,-0.08703 1.58475,-0.166107 2.34139,-0.436947 0.22182,-0.0794 0.84948,-0.405208 0.64664,-0.28537 -10.49216,6.198497 -14.95078,8.212396 -10.4552,6.158409 1.02618,-0.791593 1.8546,-1.835471 2.75824,-2.755552 1.08628,-0.879288 1.96689,-2.047471 2.78903,-3.166753 0.93989,-1.101869 0.0581,0.01148 0.86528,-1.272391 2.96415,-4.714542 7.68527,-5.063519 13.78614,-7.752961 -0.1314,0.558203 -0.51563,0.847162 -0.70638,1.408674 -0.26536,0.781185 -0.32935,1.635589 -0.82628,2.334328 -0.90688,1.346957 -2.05711,2.594587 -2.19782,4.294911 -0.3293,1.786044 -0.37199,3.554804 -0.30202,5.372596 0.004,1.819828 0.013,3.639898 -0.021,5.459512 -0.0554,1.972417 -0.16509,3.947317 -0.54946,5.887797 -0.55056,2.84668 -1.03146,5.68317 -1.12565,8.59145 0,0 -12.15697,6.02578 -12.15697,6.02578 z"
     inkscape:connector-curvature="0" />
  <path
     style="fill:#ffffff"
     id="path4633"
     d="m 218.79834,93.075855 c -0.40241,2.9943 -0.60327,6.010715 -0.73997,9.027315 -0.23901,1.88967 0.0857,3.71358 0.40477,5.56357 0.2893,1.72255 0.35294,3.46991 0.396,5.21251 0.001,0.68073 0.0139,1.36563 0.0728,2.0419 0,0 -12.19328,6.22444 -12.19328,6.22444 v 0 c 0.12498,-0.67779 -0.0203,-1.39361 0.0322,-2.07473 -0.0297,-1.68088 -0.0665,-3.36718 -0.31435,-5.03306 -0.31684,-1.947 -0.75825,-3.86292 -0.47799,-5.85218 0.15247,-3.03297 0.39847,-6.0589 0.66282,-9.083987 0,0 12.15697,-6.025778 12.15697,-6.025778 z"
     inkscape:connector-curvature="0" />
  <path
     style="fill:#ffffff"
     id="path4635"
     d="m 211.07432,68.621444 c 1.85079,2.425664 3.43326,5.058746 4.70347,7.831659 0.62877,1.77427 2.23433,2.681333 3.41684,4.012779 0.81501,0.806806 1.79617,1.40894 2.63599,2.189588 0,0 -11.56397,7.181615 -11.56397,7.181615 v 0 c -0.90835,-0.761804 -1.89481,-1.441646 -2.69695,-2.321288 -1.3149,-1.39827 -2.92565,-2.507068 -3.57574,-4.421115 -1.16294,-2.677311 -2.65099,-5.241923 -4.54063,-7.47403 0,0 11.62099,-6.999208 11.62099,-6.999208 z"
     inkscape:connector-curvature="0" />
  <path
     style="fill:#ffffff"
     id="path4637"
     d="m 295.44828,87.66163 c -0.62249,2.885797 -1.13772,5.785343 -1.8225,8.658138 -0.5165,1.838433 -0.4774,3.767972 -0.99495,5.599242 -0.60038,1.46493 -1.14496,2.94801 -1.74021,4.41467 -0.57389,1.51894 -0.66366,3.14593 -0.73545,4.7507 -0.0543,1.80882 -0.0427,3.61881 -0.0391,5.42821 0.005,1.82935 0.007,3.6587 0.009,5.48805 -0.0311,1.14376 -0.0499,2.25408 0.27512,3.35576 0,0 -11.90793,6.54443 -11.90793,6.54443 v 0 c -0.42435,-1.23119 -0.5643,-2.43012 -0.46536,-3.73484 -0.001,-1.82872 -0.003,-3.65745 -0.008,-5.48617 -0.005,-1.8238 -0.0159,-3.64779 0.0126,-5.47145 0.0438,-1.71778 0.091,-3.45431 0.53459,-5.12511 0.48865,-1.51578 1.19391,-2.94693 1.73426,-4.44514 0.887,-1.68899 0.58261,-3.64632 1.11828,-5.45756 0.69545,-2.860609 1.41208,-5.701625 1.8104,-8.625858 0,0 12.21918,-5.893072 12.21918,-5.893072 z"
     inkscape:connector-curvature="0" />
  <path
     style="fill:#ffffff"
     id="path4639"
     d="m 297.90499,92.172554 c 1.99647,2.085802 4.0886,4.102822 5.56882,6.600236 0.96899,1.82056 1.18766,3.84189 1.28589,5.86516 0.0324,1.7892 0.1159,3.58247 -0.19022,5.35164 -0.29737,1.4493 -1.23203,2.53729 -2.47763,3.27997 -4.38268,2.94328 -2.31416,1.57529 -12.88146,7.32494 -0.22138,0.12045 -0.50215,0.0729 -0.73943,0.15783 -0.67681,0.24231 -1.25642,0.58159 -1.96592,0.77742 -0.25268,0.0477 -0.51385,0.0626 -0.75805,0.14312 -0.21949,0.0724 -0.42598,0.18503 -0.61955,0.31132 -0.14451,0.0943 -0.53482,0.4323 -0.3861,0.3448 3.77989,-2.26299 7.55979,-4.52598 11.33968,-6.78898 -0.0196,0.007 -0.0391,0.0139 -0.0587,0.0208 0.0471,-0.006 0.0941,-0.0115 0.14117,-0.0173 1.42332,0.48727 2.91773,0.91499 4.39788,1.31474 2.09591,0.98852 4.42699,1.09037 6.62438,1.69018 1.85243,0.36062 3.56222,1.12043 5.3003,1.82097 1.59796,0.45451 2.86893,1.57199 4.24803,2.46124 1.48422,0.70364 2.72585,1.7642 3.99665,2.77981 1.31607,1.10421 2.36222,2.52684 3.37946,3.90838 1.4177,1.3406 2.1315,3.10862 2.95527,4.82323 0.97175,1.62715 1.78753,3.36502 2.39699,5.16041 0.77445,1.7048 1.27323,3.48135 1.55027,5.32794 0.4153,1.54181 0.76436,3.08527 0.95187,4.67221 0.37754,1.50983 0.72091,3.01423 0.90578,4.56157 0.36709,1.76595 0.71574,3.52721 0.91047,5.32186 0.35179,1.82322 0.71382,3.63704 0.91334,5.48486 0.14392,6.29517 -8.188,6.5831 -13.18816,9.05121 0,0 11.26786,-7.67981 11.26786,-7.67981 v 0 c -3.84353,2.14581 -7.72794,4.21996 -11.53057,6.43741 -0.15242,0.0889 0.36036,0.0305 0.52884,-0.0219 0.38054,-0.11827 0.66132,-0.41422 0.78559,-0.78874 0.0758,-0.22847 0.0665,-0.47682 0.0997,-0.71522 -0.16475,-1.85169 -0.48015,-3.67544 -0.91363,-5.48383 -0.16067,-1.79331 -0.45964,-3.56106 -0.91466,-5.30483 -0.15215,-1.55347 -0.45787,-3.0673 -0.90657,-4.56368 -0.15164,-1.58108 -0.46142,-3.12193 -0.92755,-4.64216 -0.21378,-1.77789 -0.65351,-3.48481 -1.41729,-5.11367 -0.56561,-1.75174 -1.38517,-3.42723 -2.32769,-5.00545 -0.78164,-1.6513 -1.45569,-3.30654 -2.82742,-4.59066 -0.96886,-1.28436 -1.93058,-2.6256 -3.20838,-3.61723 -1.2201,-1.0066 -2.51992,-1.89078 -3.91392,-2.64474 -1.33477,-0.83422 -2.53777,-1.86389 -4.09673,-2.2692 -1.68311,-0.69112 -3.39953,-1.26936 -5.17865,-1.66438 -2.24188,-0.4831 -4.49271,-0.90413 -6.6451,-1.72817 -1.64308,-0.47333 -3.38306,-0.80344 -4.81108,-1.79429 -4.2876,-5.06904 7.72038,-8.00564 12.67687,-9.5518 0.65894,-0.2653 1.318,-0.5065 1.9814,-0.75586 0.22076,-0.083 0.85302,-0.39964 0.64963,-0.28026 -10.09045,5.92246 -14.92174,8.31236 -10.45989,6.0911 0.99994,-0.75219 2.31322,-1.1051 2.91424,-2.32098 0.40924,-1.67393 0.41349,-3.34315 0.35297,-5.06638 -0.0455,-1.80824 -0.12319,-3.64052 -0.93997,-5.29582 -1.36429,-2.38481 -3.35686,-4.33849 -5.35121,-6.202227 0,0 11.51216,-7.176809 11.51216,-7.176809 z"
     inkscape:connector-curvature="0" />
  <path
     style="fill:#ffffff"
     id="path4653"
     d="m 324.61642,119.12449 c 0.0722,-3.05891 0.028,-6.11891 0.0263,-9.1783 -0.0352,-2.5711 -0.54798,-5.07334 -1.11192,-7.56764 -0.4989,-1.91363 -0.92347,-3.846925 -1.40392,-5.76589 -0.73826,-2.033993 -1.32567,-4.114226 -1.97735,-6.176203 -0.60847,-1.865563 -0.83314,-3.810248 -0.95638,-5.758545 -0.0861,-1.835683 -0.076,-3.674072 -0.0736,-5.51125 0.10662,-1.861891 -0.0387,-3.679678 -0.35036,-5.512048 -0.11412,-0.816979 -0.52955,-1.501723 -0.90714,-2.215563 0,0 11.79429,-6.749569 11.79429,-6.749569 v 0 c 0.43988,0.835896 0.92891,1.654159 1.10628,2.597053 0.32428,1.900649 0.60455,3.780222 0.45682,5.717728 -0.004,1.814661 -0.017,3.629928 0.0382,5.444003 0.0825,1.844364 0.23279,3.693266 0.78389,5.467165 0.64683,2.086472 1.21452,4.196368 2.01131,6.233695 0.51671,1.925279 0.90486,3.891251 1.41638,5.816438 0.55766,2.59554 1.11047,5.180776 1.21116,7.847106 -0.002,3.05046 -0.0462,6.10155 0.0263,9.15152 0,0 -12.09027,6.1603 -12.09027,6.1603 z"
     inkscape:connector-curvature="0" />
  <path
     style="fill:#ffffff"
     id="path4655"
     d="m 340.14472,114.55734 c 0.0679,-3.02135 0.0367,-6.04392 0.0197,-9.0657 0.13795,-2.08084 -0.21856,-4.11435 -0.5269,-6.159796 -0.32173,-1.759557 -0.34576,-3.492948 -0.0473,-5.249921 0.30947,-1.409501 0.91179,-2.730383 1.59184,-3.995295 0.91668,-1.151861 1.41841,-2.536911 1.89604,-3.9118 0.43685,-1.419911 1.32135,-2.654866 2.18606,-3.847709 0.80989,-1.358741 1.46416,-2.778324 2.38158,-4.073411 0.88567,-1.238099 1.84553,-2.436433 2.94087,-3.495569 1.24193,-0.817467 2.31229,-1.852894 3.5235,-2.707464 1.44056,-1.106166 2.85685,-2.241452 4.28891,-3.358355 1.45458,-1.150839 2.83182,-2.406193 4.397,-3.406883 1.05924,-0.861372 2.05812,-1.784907 3.167,-2.59061 0.50302,-0.385537 0.85381,-0.916517 1.2599,-1.395195 0,0 12.49061,-5.414716 12.49061,-5.414716 v 0 c -0.36185,0.593574 -0.83944,1.04162 -1.14392,1.670655 -0.95577,1.030992 -2.30738,1.56831 -3.12787,2.740862 -1.45723,1.135309 -3.12431,2.005866 -4.44677,3.336272 -1.40137,1.16513 -2.87124,2.226262 -4.26257,3.396169 -0.22772,0.182292 -0.45544,0.364585 -0.68316,0.546877 -0.24194,0.126955 -0.5069,0.217368 -0.72581,0.380866 -0.7259,0.542178 -1.24749,1.377318 -2.08089,1.800315 -1.3567,0.679024 -2.11831,1.986394 -3.14547,3.057348 -0.85466,1.328609 -1.87487,2.517328 -2.36332,4.059022 -0.74339,1.203524 -1.67131,2.277497 -2.37182,3.496165 -0.39783,1.476517 -0.90127,2.988025 -1.69293,4.29512 -0.93154,0.983171 -1.25715,2.270631 -1.85492,3.459917 -0.31077,1.641882 -0.5506,3.198915 -0.17239,4.87057 0.29688,2.113339 0.75498,4.207512 0.57353,6.356379 -0.0168,3.015077 -0.0486,6.030957 0.0197,9.045587 0,0 -12.09027,6.1603 -12.09027,6.1603 z"
     inkscape:connector-curvature="0" />
  <path
     style="fill:#ffffff"
     id="path4657"
     d="m 354.65505,84.956324 c -0.27941,1.399513 -0.51621,2.807809 -0.84383,4.197127 -0.25883,0.977281 -0.38939,1.976762 -0.45382,2.983409 0.0211,0.882774 -0.0901,1.72226 -0.38784,2.552176 -0.22478,0.760212 -0.52564,1.495621 -0.75608,2.253515 -0.16919,0.842341 -0.26971,1.693478 -0.43655,2.537588 -0.17699,0.905861 -0.20353,1.827991 -0.36869,2.735371 -0.19477,0.88836 -0.28381,1.79192 -0.33336,2.69833 -0.0384,0.90823 -0.0367,1.81751 -0.0371,2.72636 0.0645,0.96005 -0.098,1.89945 -0.24864,2.84202 -0.20531,0.89109 -0.43539,1.77029 -0.55485,2.67843 -0.0981,0.89688 -0.10365,1.8002 -0.1099,2.70135 0.0602,0.97515 -0.0915,1.9276 -0.24839,2.88468 -0.12208,0.8081 -0.18544,1.62602 -0.18371,2.44333 0.002,0.0248 0.012,0.0986 0.006,0.0743 -0.58405,-2.56739 -7.97783,4.26155 -5.57335,2.59644 0,0 6.25994,-2.66596 6.25994,-2.66596 v 0 c -1.15963,2.32283 -5.65302,5.84457 -6.77238,3.06886 0.0534,-0.84249 0.0369,-1.69072 0.16413,-2.52794 0.13935,-0.93098 0.39088,-1.84385 0.29647,-2.79442 0.003,-0.92287 0.003,-1.84708 0.0765,-2.76767 0.0907,-0.91754 0.24567,-1.82487 0.54282,-2.70088 0.13394,-0.91623 0.37781,-1.81642 0.29562,-2.75025 -6.5e-4,-0.91826 -0.004,-1.83675 0.0229,-2.75473 0.0365,-0.93429 0.0976,-1.86993 0.2907,-2.78721 0.18769,-0.90634 0.24651,-1.81534 0.36853,-2.73272 0.15798,-0.85846 0.33931,-1.70236 0.40922,-2.574325 0.17691,-0.799933 0.5391,-1.520649 0.72968,-2.315885 0.29766,-0.78045 0.56997,-1.513133 0.48297,-2.37248 0.0487,-1.045855 0.14921,-2.089779 0.41861,-3.105335 0.34334,-1.35955 0.59346,-2.734829 0.86555,-4.110632 0,0 6.07849,-3.012889 6.07849,-3.012889 z"
     inkscape:connector-curvature="0" />
  <path
     style="fill:#ffffff"
     id="path4659"
     d="m 348.29899,108.21515 c -0.034,1.51068 -0.0183,3.02196 -0.01,4.53285 -0.0452,0.93057 0.1929,1.83608 0.32431,2.75019 0.0459,0.88103 0.24579,1.73819 0.39334,2.60488 0.14724,0.91758 0.17989,1.84723 0.20071,2.77459 0.0327,0.90375 -0.0299,1.81048 0.0457,2.71195 0.34896,0.8995 0.57893,1.81527 0.71389,2.77054 0.12806,1.04947 0.1502,2.1074 0.16287,3.16332 0.005,0.5138 1.5e-4,1.02763 -0.001,1.54143 0,0 -6.03993,3.07641 -6.03993,3.07641 v 0 c 2e-5,-0.51083 -0.003,-1.02164 -0.002,-1.53247 -0.004,-1.03182 -0.01,-2.0657 -0.1148,-3.09326 -0.11984,-0.96318 -0.34562,-1.87902 -0.73068,-2.77291 -0.13538,-0.91712 -0.0458,-1.84651 -0.077,-2.7715 -0.0132,-0.89751 -0.0309,-1.79759 -0.15586,-2.68796 -0.13723,-0.87458 -0.37721,-1.73076 -0.40673,-2.61916 -0.11989,-0.94827 -0.3829,-1.88426 -0.33762,-2.84595 0.008,-1.50754 0.0243,-3.01548 -0.01,-4.5228 0,0 6.04513,-3.08015 6.04513,-3.08015 z"
     inkscape:connector-curvature="0" />
  <path
     style="fill:#ffffff"
     id="path4661"
     d="m 345.73978,112.56212 c 0.63738,1.31845 1.6099,2.43334 2.29742,3.71848 0.58738,0.96666 0.838,2.05002 1.10653,3.13133 0.27515,0.91245 0.60295,1.79738 0.78883,2.73642 0.16195,0.93746 0.18319,1.89029 0.19767,2.83908 0.008,0.91645 0.003,1.83296 9.2e-4,2.74943 -0.0696,0.91136 0.11094,1.79998 0.24856,2.69471 0.0418,0.83626 0.27729,1.63441 0.4467,2.4485 0.0927,0.79346 0.20593,1.57048 0.38708,2.34855 0.20996,0.80476 0.18369,1.64191 0.30322,2.45825 0.19929,0.79068 0.31496,1.59382 0.38042,2.40545 0.0577,0.90237 0.0583,1.80706 0.0609,2.71087 6.8e-4,0.91456 -0.001,1.82911 -0.002,2.74366 -8.3e-4,0.91367 -9.7e-4,1.82733 -10e-4,2.74099 -7e-5,0.91343 -5e-5,1.82685 -4e-5,2.74028 0.027,0.88011 -0.0525,1.76645 0.0366,2.64335 0.18779,0.75873 0.23516,1.54341 0.39198,2.30627 0.15561,0.66682 0.38294,1.32072 0.69633,1.93024 0.46309,0.82764 0.88156,1.67625 1.30558,2.52496 0.33803,0.63853 0.67719,1.27567 1.02498,1.90901 0,0 -5.82784,3.35951 -5.82784,3.35951 v 0 c -0.37231,-0.63338 -0.74846,-1.26495 -1.08825,-1.9167 -0.41777,-0.84848 -0.85381,-1.68264 -1.32393,-2.50213 -0.34035,-0.65802 -0.59817,-1.36112 -0.77337,-2.08064 -0.19657,-0.77528 -0.19783,-1.58959 -0.41869,-2.36364 -0.14722,-0.90004 -0.0416,-1.81868 -0.0727,-2.72794 -1e-5,-0.91345 -3e-5,-1.8269 10e-6,-2.74034 7e-5,-0.91384 1.5e-4,-1.82768 8.5e-4,-2.74152 8.1e-4,-0.91395 0.002,-1.8279 0.003,-2.74184 -9.2e-4,-0.88891 8.9e-4,-1.77839 -0.0424,-2.66648 -0.0508,-0.79027 -0.14067,-1.57619 -0.3521,-2.34205 -0.16053,-0.79995 -0.0967,-1.62801 -0.28827,-2.42645 -0.17863,-0.78625 -0.3471,-1.55915 -0.39476,-2.36727 -0.15698,-0.82862 -0.43034,-1.63135 -0.45432,-2.48166 -0.13382,-0.92625 -0.3666,-1.84229 -0.29617,-2.78502 0.002,-0.91377 0.006,-1.82755 0.004,-2.74132 -0.007,-0.91341 -0.013,-1.83048 -0.14164,-2.73667 -0.16057,-0.9323 -0.48614,-1.79883 -0.76502,-2.69712 -0.271,-1.02587 -0.43475,-2.08121 -1.01423,-2.99987 -0.6677,-1.27638 -1.59437,-2.40323 -2.28518,-3.66943 0,0 5.86098,-3.41125 5.86098,-3.41125 z"
     inkscape:connector-curvature="0" />
  <path
     style="fill:#ff0000"
     id="path4665"
     d="m 523.87399,78.154643 c 2.62956,0.207599 5.22015,0.700742 7.84066,0.988975 3.23243,0.298895 6.42164,0.980444 9.61879,1.541029 4.65271,0.901499 9.31472,1.743303 13.94745,2.744902 4.77066,0.844233 9.50991,1.78057 14.20561,2.976635 4.32238,0.983951 8.59399,2.170784 12.90919,3.183587 4.23427,0.876798 8.41066,2.017175 12.61408,3.033401 3.45756,0.702475 6.82841,1.747385 10.21853,2.708234 2.36724,0.538915 4.67487,1.287032 7.04097,1.828801 3.42821,0.893893 6.89246,1.633026 10.34295,2.432235 3.28196,0.653368 6.57666,1.263248 9.88598,1.765148 3.39334,0.47154 6.78107,0.94326 10.1994,1.19127 3.88887,0.29989 7.73165,0.9721 11.58537,1.54546 2.46923,0.47748 5.00095,0.33791 7.48205,0.65724 1.37415,0.25186 2.75694,0.41871 4.15151,0.49048 1.05184,0.3896 2.20159,0.38726 3.25028,0.75057 1.0749,0.74025 2.31401,0.92929 3.5533,1.20903 1.96227,0.5226 3.96899,0.8236 5.95504,1.23566 2.45512,0.60617 4.86619,1.38381 7.32295,1.98482 2.55891,0.60145 5.06775,1.39655 7.63074,1.97953 1.95655,0.43304 3.95448,0.4877 5.91639,0.87481 1.02865,0.31229 0.51721,0.16153 1.5342,0.45268 0,0 -7.90476,5.41769 -7.90476,5.41769 v 0 c -0.99433,-0.27594 -0.49765,-0.14882 -1.48987,-0.38209 -1.95413,-0.35709 -3.95333,-0.43192 -5.87976,-0.95304 -2.55503,-0.63279 -5.08349,-1.37075 -7.64221,-1.99048 -2.43797,-0.64634 -4.85128,-1.38272 -7.31686,-1.92413 -2.00578,-0.37016 -3.99819,-0.78188 -5.98637,-1.23631 -1.27157,-0.26319 -2.45378,-0.6673 -3.62418,-1.22701 -1.04125,-0.20494 -2.07861,-0.4414 -3.1266,-0.59921 -1.38945,-0.11581 -2.76184,-0.34184 -4.13956,-0.55122 -2.47721,-0.23514 -4.97814,-0.25986 -7.42905,-0.74383 -3.83527,-0.6208 -7.67333,-1.27676 -11.56004,-1.47743 -3.41661,-0.30009 -6.80658,-0.80089 -10.20292,-1.27204 -3.32734,-0.51345 -6.648,-1.09233 -9.93619,-1.81655 -3.46023,-0.79595 -6.92096,-1.58863 -10.3767,-2.40425 -2.38201,-0.53447 -4.70527,-1.28421 -7.07369,-1.87602 -3.3548,-1.003074 -6.71159,-2.013518 -10.14673,-2.712327 -4.17618,-1.06975 -8.34948,-2.167891 -12.57093,-3.045285 -4.31409,-0.992341 -8.56427,-2.238272 -12.88082,-3.223135 -4.69064,-1.158772 -9.43747,-2.028337 -14.17808,-2.953747 -4.64042,-0.964096 -9.30739,-1.794408 -13.96212,-2.685958 -3.22399,-0.51682 -6.43914,-1.122213 -9.69052,-1.431573 -2.61262,-0.317582 -5.20903,-0.838269 -7.84991,-0.846815 0,0 7.76243,-5.639737 7.76243,-5.639737 z"
     inkscape:connector-curvature="0" />
  <path
     style="fill:#ff0000"
     id="path4667"
     d="m 673.17641,90.73938 c -2.25542,0.974857 -4.54834,1.860977 -6.89711,2.583907 -2.03147,0.478533 -4.01811,1.153084 -5.98759,1.840076 -2.08858,0.500739 -4.16829,1.037883 -6.25522,1.551925 -3.24219,0.877559 -6.54347,1.5056 -9.77538,2.420481 -4.00265,1.022431 -8.0411,1.882961 -12.07285,2.777891 -3.8117,1.00529 -7.61354,2.04182 -11.44306,2.98408 -5.05449,1.22835 -10.18039,2.12464 -15.25938,3.25536 -4.91106,1.04187 -9.76081,2.30653 -14.71574,3.13099 -2.62682,0.20025 -5.17028,0.90954 -7.75997,1.32669 -0.97615,0.15725 -2.73421,0.34184 -3.72163,0.45218 -2.79895,0.39577 -5.60161,0.71454 -8.38374,1.21021 -1.74812,0.14411 -3.43562,0.49892 -5.14275,0.86847 -1.39161,0.24809 -2.81359,0.26952 -4.22364,0.29748 -1.34114,0.0179 -2.68244,0.0125 -4.02366,0.0102 -1.54389,0.38084 -3.06104,0.81073 -4.64255,1.05127 -1.68208,0.36778 -3.34338,0.83027 -5.04159,1.12045 -2.54869,0.46172 -5.05892,1.12241 -7.59543,1.65769 -1.9968,0.38361 -4.02348,0.54597 -5.97813,1.12357 -1.80783,0.64079 -3.7416,0.57101 -5.6095,0.89184 -1.68009,0.20345 -3.30516,0.66537 -4.97881,0.88879 -1.72501,0.2056 -3.44402,0.22477 -5.13927,0.6089 -0.37084,0.0595 -0.88049,0.13124 -1.25489,0.22531 -0.114,0.0286 -0.23975,0.0416 -0.33483,0.11069 -0.0472,0.0344 -0.0969,0.20141 -0.0488,0.16827 8.53951,-5.88197 4.82036,-5.83497 8.83884,-5.74047 3.31774,-0.3723 6.67069,-0.38789 10.00617,-0.46519 7.24516,-0.0386 14.47412,-0.53914 21.71161,-0.80938 11.84633,-0.19773 23.67131,-0.88102 35.48504,-1.75133 13.50021,-0.94235 26.90854,-2.78432 40.32183,-4.52353 6.58329,-0.9708 13.24553,-1.35226 19.81282,-2.43006 2.54784,-0.35902 5.01108,-1.10078 7.56052,-1.449 0.69508,-0.21621 1.40868,-0.363 2.11207,-0.54583 0.15629,-0.0406 0.60355,-0.22102 0.4637,-0.14028 -8.06532,4.6565 -10.14877,2.25095 -7.88996,4.72259 0.0195,0.0811 0.10116,0.17166 0.0585,0.2434 -0.0512,0.0863 -2.61997,-0.41641 -2.90513,-0.45849 -3.2353,-0.343 -6.4984,-0.34291 -9.74829,-0.38169 -8.01956,-0.0421 -16.03879,-0.11671 -24.05851,-0.12977 -11.87635,-0.18696 -23.7453,0.10224 -35.60955,0.6017 -6.17182,0.22298 -12.29035,1.00101 -18.41187,1.75362 -1.1227,0.15947 -2.3295,0.18484 -3.40694,0.592 -0.13678,0.0517 -0.49118,0.3173 -0.37114,0.23382 8.18528,-5.69227 4.85617,-5.03308 8.62596,-5.69064 2.76923,-0.63257 5.56327,-1.00737 8.39756,-1.16722 9.21757,-0.4339 18.4198,-1.14347 27.63053,-1.70422 13.71699,-0.73774 27.431,-1.51988 41.16352,-1.90115 9.16942,-0.32082 18.34781,-0.36267 27.5159,-0.72205 0.25831,-0.0142 0.51662,-0.0285 0.77493,-0.0427 0.0266,-0.0145 0.1048,-0.0608 0.0799,-0.0435 -9.01833,6.24474 -5.68222,5.93148 -12.76784,5.53703 -14.6215,-0.60603 -29.25901,-0.72403 -43.89128,-0.7888 -15.33567,-0.13769 -30.6672,0.14803 -45.99775,0.50263 -5.82001,0.0231 -11.6203,0.49549 -17.42152,0.89933 -0.9651,0.21177 -2.01171,0.19085 -2.95304,0.52391 -0.11206,0.0396 -0.39947,0.25776 -0.30115,0.19097 8.39162,-5.69945 4.90976,-5.68111 8.92955,-5.53953 3.81035,0.1267 7.62428,0.1153 11.43634,0.12515 8.60996,0.0398 17.20954,-0.53636 25.80249,-1.00971 17.90817,-1.14531 35.78463,-2.811937 53.6299,-4.691563 6.55272,-0.615326 13.04836,-1.688465 19.58667,-2.416244 -2.73442,1.948841 -5.38895,4.014945 -8.20326,5.846527 -0.30595,0.19911 -0.71753,0.13522 -1.07786,0.1937 -0.50316,0.0817 -1.00895,0.14645 -1.51234,0.22667 -2.03993,0.32507 -4.08021,0.63966 -6.12271,0.94928 -12.71758,1.4571 -25.49453,2.15275 -38.27235,2.81419 -25.76432,1.32826 -51.4492,3.77779 -77.1212,6.2709 -18.68706,2.04516 -37.44116,3.75292 -56.01067,6.73805 -4.78035,0.88445 -8.72249,3.35572 5.20195,-4.6469 0.28684,-0.16485 0.6609,0.0323 0.99155,0.0434 1.81873,0.0612 1.1723,0.0484 3.16904,-0.0383 5.0995,-0.16391 10.17678,-0.58709 15.25928,-1.00834 16.55651,-1.31744 33.03742,-3.39894 49.5028,-5.5446 16.67077,-2.22787 33.2935,-4.81051 49.86068,-7.707326 3.60633,-0.753446 7.2596,-1.320698 10.82807,-2.252128 0.48921,-0.127692 0.97652,-0.267288 1.45098,-0.441998 0.23315,-0.08585 0.87113,-0.475489 0.66478,-0.337095 -2.71285,1.81951 -5.45902,3.588847 -8.18853,5.383267 -2.95388,-0.0701 -5.90929,-0.0476 -8.86408,-0.0619 -5.49238,0.0271 -10.98472,0.0236 -16.4771,0.0322 -4.16329,0.0224 -8.32691,0.0164 -12.48993,0.074 -4.20027,0.0528 -3.52529,1.10206 6.95558,-5.632622 0.10303,-0.0662 2.15517,0.02088 2.33648,0.0219 3.27947,0.02474 6.55901,0.0321 9.83849,0.05505 11.40766,0.234051 22.77826,-0.812369 34.1093,-1.996983 10.83429,-1.261628 21.65983,-2.670676 32.41729,-4.483448 0.82817,-0.168391 2.6364,-0.497905 3.57341,-0.799635 0.22391,-0.0721 0.83521,-0.428491 0.64009,-0.29712 -6.71013,4.517691 -5.29449,5.508822 -9.69595,5.346061 -4.72596,-0.144458 -9.44207,0.411315 -14.14505,0.805769 -1.86939,0.148043 -3.73853,0.299238 -5.60816,0.444128 -8.34678,0.646848 -16.68208,1.279738 -25.00308,2.220426 -7.24427,0.818963 -13.63707,1.704583 -20.89064,2.666325 -20.56114,2.893499 -40.95688,6.788569 -61.13723,11.659869 -4.56485,1.20844 -9.18454,2.21983 -13.6962,3.62433 -0.71878,0.22376 -1.43614,0.45521 -2.13834,0.72656 -0.402,0.15533 -1.54165,0.76861 -1.16932,0.55158 2.56477,-1.49498 5.16685,-2.92504 7.75027,-4.38756 -0.0521,-0.16629 -0.22421,-0.33832 -0.15643,-0.49887 0.0921,-0.2181 0.96653,-0.10946 1.36948,-0.0976 1.6712,0.0493 3.34252,0.0527 5.0143,0.0592 8.94574,0.46179 17.79957,-0.67088 26.61467,-2.05047 14.78406,-2.43336 29.48919,-5.30959 44.16088,-8.3407 8.71702,-1.783412 17.36976,-3.888477 25.89351,-6.441281 3.52249,-1.135257 9.24039,-4.942403 -4.88569,3.202817 -0.0691,0.03986 0.16726,-0.111866 0.23078,-0.06357 0.36548,0.277877 0.0987,0.377007 -0.072,0.510206 -2.01062,-0.06962 -4.02246,-0.06127 -6.03395,-0.06262 -4.15023,0.206016 -8.26244,0.760987 -12.3784,1.304694 -5.93031,0.669045 -11.82381,1.605634 -17.72918,2.457004 -2.05169,0.45084 -4.21807,0.55674 -6.17635,1.38107 -0.19399,0.0817 -0.36862,0.20326 -0.55293,0.30489 2.7586,-1.74185 5.51721,-3.483709 8.27581,-5.225562 2.14589,0.04153 4.33164,-0.17852 6.45986,-0.483897 4.09491,-0.998906 8.08203,-2.38603 11.98538,-3.968137 3.8576,-1.274541 15.78681,-8.251886 0.52281,0.471716 0.077,-0.067 1.69439,-0.982584 1.35873,-1.29787 -0.22912,-0.215219 -0.54141,-0.319597 -0.81261,-0.478552 -1.44282,-0.624086 -2.95517,-1.0348 -4.50739,-1.281635 -2.69836,-0.292626 -5.42105,-0.268787 -8.13198,-0.282747 -3.44929,-0.203772 -6.83913,0.394644 -10.23368,0.904152 -2.92201,0.669011 -5.95851,0.96359 -8.78085,2.010757 -0.23043,0.143673 -0.92763,0.564767 -0.6913,0.431019 2.5908,-1.466223 5.17107,-2.950983 7.75529,-4.428772 0.0766,-0.04381 -0.14452,0.119035 -0.23244,0.126821 -0.17982,0.01593 -0.0785,-0.193481 -0.0287,-0.20736 0.0959,-0.02671 0.19895,0.0047 0.29842,0.007 1.60412,0.107014 3.21255,0.105433 4.81943,0.113131 3.54163,-0.152692 6.9706,-1.087596 10.41755,-1.832918 4.7156,-0.865254 9.41751,-1.798923 14.10647,-2.797549 2.55283,-0.489629 5.00626,-1.266744 7.43467,-2.158677 -2.88308,2.107644 -5.63793,4.871837 -9.06771,6.190063 -0.76842,0.295336 -1.50165,0.486375 -2.24582,0.850462 -0.30021,0.153688 -0.59135,0.326539 -0.90062,0.461066 -0.81584,0.354874 -1.54892,0.527289 -2.38221,0.853094 -1.69453,0.662532 -3.37627,1.373326 -5.06844,2.045306 -3.7524,1.460591 -7.39836,3.152133 -11.01315,4.918613 -1.84563,0.78611 -3.70461,1.520589 -5.46079,2.497146 -1.69469,0.64849 -3.33318,1.41333 -4.98497,2.15913 -1.6768,0.76608 -3.37348,1.47529 -5.06336,2.21001 -2.18654,1.25226 -4.6261,1.99571 -6.9999,2.81076 -2.96925,1.03374 -5.86244,2.25549 -8.73516,3.52904 -2.68052,1.17797 -5.45298,2.13247 -8.14466,3.28192 -0.23509,0.0835 -1.6145,0.56248 -1.91999,0.70845 -0.16358,0.0782 -0.60285,0.40266 -0.45657,0.29557 6.83677,-5.00514 5.26105,-5.61104 9.95407,-6.14492 7.63369,-0.62793 15.28286,-1.07888 22.92395,-1.61733 13.52192,-0.78063 27.05375,-1.33059 40.58938,-1.8045 16.43252,-0.65079 32.85647,-1.49335 49.2907,-2.09793 12.94028,-0.29483 25.87512,-1.19584 38.82058,-1.25795 2.59102,0.13628 4.64245,-0.0139 5.81361,2.56704 0.2253,1.0318 0.44642,2.07187 0.62521,3.11546 0.19039,0.86122 0.83637,1.44886 1.55523,1.90227 1.8079,0.90121 3.78261,1.2403 5.76345,1.51373 6.67912,0.64117 13.40507,0.47618 20.1025,0.32386 18.68731,-0.65937 37.30748,-2.54787 55.89747,-4.48588 13.39505,-1.4598 26.75071,-3.27457 40.07221,-5.29285 0.8811,-0.14234 1.76389,-0.27456 2.6433,-0.42702 1.99285,-0.34552 1.11952,-0.17681 2.51322,-0.56912 0.085,-0.0239 0.33067,-0.11035 0.25785,-0.0605 -9.22574,6.32057 -5.47305,5.33502 -10.79523,6.38417 -7.01877,1.41657 -14.07513,2.66129 -21.14693,3.78391 -10.8803,1.69758 -21.77648,3.28982 -32.61726,5.23048 -3.08528,0.62907 -6.16578,1.2881 -9.23101,2.00956 -1.10644,0.26042 -2.22633,0.49286 -3.26271,0.96755 2.7863,-1.8317 5.51491,-3.75433 8.35891,-5.49509 0.21335,-0.13058 0.49947,-0.0378 0.74634,-0.0781 0.316,-0.0516 0.62625,-0.13375 0.94009,-0.19715 1.24713,-0.25196 2.45949,-0.439 3.68735,-0.78336 3.14515,-0.7692 6.18149,-1.89632 9.22506,-2.98525 4.08289,-1.58047 8.33202,-2.64436 12.50648,-3.94536 2.95237,-0.91668 5.90939,-1.86865 8.73857,-3.12374 0.15804,-0.10079 0.63161,-0.40404 0.47414,-0.30236 -2.73565,1.7663 -5.41561,3.62221 -8.20867,5.29624 -0.2133,0.12784 -2.05371,0.1542 -2.14744,0.15843 -0.30535,0.0138 -3.04119,0.16047 -3.27165,0.17277 -4.93423,0.36292 -9.79885,1.26342 -14.6836,2.00399 -5.38774,0.77467 -10.79258,1.63701 -16.07307,2.9772 -3.58596,1.09646 -8.63987,4.64549 6.17137,-4.33679 0.46463,-0.28177 2.77043,-0.0126 3.16208,8.3e-4 11.25364,0.42403 22.48299,-0.67947 33.6748,-1.70468 23.82743,-2.43581 47.48629,-6.20586 71.09807,-10.171734 10.82089,-1.918145 21.68084,-3.696294 32.40747,-6.105931 2.22775,-0.500444 4.44241,-1.057648 6.66717,-1.57119 0.0782,0.163469 2.6058,-0.857684 2.87828,-0.472335 0.69756,0.986507 0.27406,1.394967 -0.35655,2.154055 -1.46015,1.429157 -2.97225,2.799641 -4.40064,4.261738 -0.92328,1.082417 -2.13683,2.167962 -2.33626,3.645865 0.21711,0.883172 1.44968,0.792262 2.18049,0.842552 1.35156,0.0535 2.70445,0.019 4.05664,0.0259 2.29837,-0.0749 4.59226,-0.34227 6.88945,-0.500284 0.50656,0.126399 1.0097,-0.181607 1.5139,-0.132669 0.25161,0.02442 0.99656,0.637113 0.64785,0.902553 -5.4656,4.16037 -5.54774,4.15952 -8.98025,5.63663 -3.59041,1.45192 -7.32937,2.54825 -11.02716,3.70295 -6.63292,2.09652 -13.21504,4.35974 -19.70425,6.86622 -1.0888,0.41426 -2.18467,0.81039 -3.2664,1.24278 -2.65624,1.06176 -5.34685,2.16964 -7.91459,3.4356 -0.58764,0.28973 -2.29904,1.25743 -1.7323,0.92869 2.29203,-1.32947 4.60593,-2.62089 6.90889,-3.93134 -1.07745,0.9441 -0.99925,0.45623 -0.50476,0.35063 0.54992,-0.11743 1.11847,-0.12186 1.67381,-0.21016 12.02659,-2.25869 24.07095,-4.40398 36.13309,-6.4688 20.29884,-3.33588 40.63735,-6.45907 60.86772,-10.1958 3.77575,-0.75884 7.58999,-1.35739 11.3392,-2.248746 0.468,-0.111265 0.93541,-0.229558 1.39167,-0.381991 0.20576,-0.06875 0.76659,-0.402282 0.58784,-0.279352 -2.71274,1.865529 -5.46407,3.674319 -8.1961,5.511479 -2.30081,-0.0236 -4.6017,-0.003 -6.90259,0.0109 -4.03319,0.005 -8.04645,0.62411 -12.03543,1.17233 -5.90351,0.81094 -11.66889,2.33537 -17.44306,3.76651 -5.85116,1.48225 -11.6709,3.09342 -17.40657,4.97533 -3.59182,1.2637 -7.07192,2.81975 -10.66061,4.08933 -1.79395,0.5777 -3.61518,1.13779 -5.46825,0.59526 -1.48596,-0.35475 -2.37197,-1.39968 -3.13956,-2.63689 -1.03913,-2.08708 -0.91481,-3.34344 0.12232,-5.39792 0.25614,-0.3363 0.48406,-0.69609 0.76841,-1.00889 0.85323,-0.93858 2.01043,-1.82754 3.10014,-2.4726 8.40818,-4.97725 6.31992,-3.88936 10.65846,-6.08451 3.69906,-1.774291 7.64558,-2.992553 11.52298,-4.316726 3.80211,-1.180586 7.73165,-1.895337 11.51781,-3.127187 3.50526,-1.24846 7.69025,-4.937163 -5.87986,3.611064 -0.11051,0.06962 0.16359,0.225673 0.16311,0.356288 -8.9e-4,0.242717 -0.47026,0.156856 -0.71283,0.148582 -2.98968,-0.147356 -5.96865,-0.410849 -8.96088,-0.549458 -12.01583,-0.448805 -24.03969,-0.303127 -36.05572,0.02475 -13.65481,0.56706 -27.30547,1.556915 -40.85758,3.346917 -4.56404,0.63798 -9.79713,3.53132 5.04536,-4.674981 0.36494,-0.201771 0.83305,0.0401 1.24973,0.05644 3.47139,0.136139 2.49725,0.09526 6.47692,0.164338 15.56272,0.184798 31.09695,-1.110496 46.5876,-2.452145 17.51312,-1.678862 35.02255,-3.642741 52.39979,-6.419222 3.14321,-0.545295 6.28787,-1.086582 9.42338,-1.675289 0.85903,-0.161286 1.87209,-0.26876 2.67318,-0.669771 -9.06957,6.419323 -5.68899,5.623577 -12.44437,5.648618 -3.10467,-0.256432 -6.05884,0.630429 -9.06957,1.223372 -9.51375,1.746104 -19.13839,2.83449 -28.71787,4.161495 -21.7635,3.066007 -43.41696,6.849085 -65.03239,10.811405 -21.85253,4.1345 -43.65827,8.50937 -65.53028,12.54108 -10.00288,1.78448 -20.01705,3.53988 -30.08823,4.89809 -0.716,0.0953 -1.43223,0.1889 -2.148,0.28594 -0.47718,0.0647 -0.95451,0.12848 -1.43083,0.19926 -0.27446,0.0408 -0.55209,0.0684 -0.82134,0.13542 -0.0877,0.0219 -0.31378,0.17919 -0.2388,0.12865 8.71996,-5.87725 5.1137,-5.37361 9.48413,-5.79462 6.02874,-0.88421 12.14938,-0.99847 18.22917,-1.21361 18.88441,-0.61692 37.78001,-0.8 56.66074,-1.54917 5.48284,-0.21755 10.96276,-0.50319 16.44415,-0.75478 31.46207,-1.5503 62.83325,-4.57347 94.10667,-8.29315 4.52341,-0.68555 9.11259,-1.0348 13.60884,-1.91323 0.39761,-0.0777 1.50493,-0.54304 1.17614,-0.30634 -7.83367,5.63961 -5.0719,5.48816 -9.36395,5.41162 -4.86832,-0.0932 -9.73807,-0.0259 -14.60711,-0.0536 -17.98424,0.11206 -35.96325,0.18842 -53.94352,0.65027 -29.66279,0.92197 -59.08604,4.99605 -88.4268,9.18348 -13.83193,2.10604 -27.66189,4.27659 -41.41879,6.83678 -12.76006,2.37467 0.52298,0.0463 -9.47849,1.77508 -2.02374,0.21704 -5.86736,1.28028 -6.58212,-1.61744 -0.0739,-0.29976 -0.0505,-0.61542 -0.0757,-0.92312 0.21672,-2.12881 1.61635,-3.63275 3.11453,-5.01999 5.5372,-4.31572 11.74654,-7.71648 17.94069,-10.98382 4.01636,-1.75704 8.01902,-3.52784 12.10619,-5.11381 4.01977,-1.62545 8.16752,-2.87741 12.2976,-4.18169 3.91158,-1.34486 7.88958,-2.389967 11.95738,-3.125094 6.3184,-1.058009 12.72274,-1.337322 19.11317,-1.569145 18.95194,-0.781474 37.8988,-1.662493 56.82798,-2.881746 14.55917,-1.033972 29.11008,-2.30317 43.57101,-4.304736 2.20865,-0.333011 3.59568,-0.520472 5.7072,-0.907018 0.34511,-0.06318 1.85964,-0.342397 2.3801,-0.547295 0.11144,-0.04387 0.38924,-0.279184 0.29066,-0.211181 -2.70639,1.866959 -5.40944,3.738739 -8.11416,5.608109 -1.60653,0.0019 -3.2088,-0.04803 -4.80932,0.106096 -5.31198,0.629768 -10.64207,1.122624 -15.96675,1.64733 -30.07156,2.674988 -60.02189,6.49495 -89.94555,10.45776 -24.65967,3.51502 -49.19944,7.8869 -73.47296,13.48409 -3.56062,0.89241 -3.89613,0.91635 -6.94018,1.85094 -0.44699,0.13724 -0.89776,0.26744 -1.33016,0.44537 -0.14928,0.0614 -0.53494,0.36152 -0.40338,0.26798 8.20538,-5.83396 4.77299,-5.39244 8.75483,-5.76571 3.72581,-0.83028 7.28931,-2.23831 10.83877,-3.61895 5.58854,-2.21181 11.31311,-4.07983 17.0228,-5.95458 9.22588,-3.23157 18.54317,-6.18261 27.90163,-9.002451 4.7336,-1.561139 9.75373,-2.321189 14.32972,-4.344691 0.17048,-0.121694 0.68298,-0.485292 0.51145,-0.365081 -2.8626,2.006138 -5.61956,4.171597 -8.58467,6.022876 -0.4453,0.278029 -1.0328,0.189994 -1.54568,0.302065 -1.99946,0.436915 -3.97243,1.002869 -5.95285,1.516622 -8.20488,2.37228 -16.58818,3.97715 -24.9624,5.61004 -7.52669,1.53145 -15.13922,2.66973 -22.60716,4.47887 -1.08791,0.15101 -2.13198,0.52449 -3.21334,0.70778 -1.49693,0.25372 -1.86211,-0.44995 -2.28068,-1.73262 -0.15027,-1.39802 -0.0771,-2.75204 -0.43658,-4.12207 -0.38111,-1.471 -1.66085,-2.1142 -2.82308,-2.91406 -1.92228,-1.45201 -4.22157,-2.18875 -6.53198,-2.752875 -2.45501,-0.7007 -4.98973,-0.930236 -7.5275,-1.058563 -2.33255,-0.195968 -4.62951,-0.04653 -6.93854,0.267566 -0.81355,0.211188 -1.64371,0.310762 -2.40267,0.693831 -0.17026,0.08594 -0.64893,0.400851 -0.48338,0.306147 8.04641,-4.603125 10.25348,-2.550733 7.80567,-4.727198 -0.0164,-0.123375 -0.0899,-0.252508 -0.0492,-0.370126 0.0675,-0.19513 1.86454,-0.394835 2.12899,-0.476294 0.26095,-0.08039 0.51133,-0.191781 0.767,-0.287671 2.22819,-0.674476 4.3962,-1.564257 6.47787,-2.602436 4.70854,-2.046023 9.6649,-3.48984 14.57528,-4.969384 7.45298,-2.239938 15.00692,-4.081907 22.58353,-5.848606 2.87166,-0.627167 5.74894,-1.244203 8.58519,-2.020478 0.50867,-0.139222 1.0185,-0.277148 1.51708,-0.449025 0.28267,-0.09745 1.06918,-0.526721 0.82264,-0.357551 -2.67065,1.832579 -5.40484,3.570797 -8.10727,5.356196 -0.1949,0.0483 -0.38501,0.12394 -0.58472,0.144889 -0.90853,0.0953 -1.82837,0.01587 -2.7392,0.08594 -2.64277,0.203307 -5.2991,0.619004 -7.92396,0.959974 -11.60023,1.388174 -23.17965,3.099674 -34.5741,5.717838 -3.81903,0.877518 -7.60202,1.90508 -11.40302,2.85762 -14.03493,3.910354 -28.2485,7.803856 -41.51662,13.942656 -1.25171,0.57913 -2.46433,1.23924 -3.6965,1.85886 -0.81756,0.48602 -3.29809,1.89386 -2.45268,1.45806 2.19413,-1.19562 4.38827,-2.39125 6.5824,-3.58687 -0.12006,0.30599 -1.58912,1.16997 -0.50621,1.16502 1.96962,0.52529 4.01939,0.5971 6.04521,0.67028 3.16635,0.21531 6.29282,-0.46534 9.36542,-1.15306 3.72409,-0.80627 7.36015,-1.99856 11.02159,-3.05451 3.26419,-0.83672 6.49954,-1.77149 9.7603,-2.62199 3.88512,-1.10099 7.90244,-1.59168 11.91694,-1.908152 5.59888,-0.20306 11.2025,-0.238406 16.80435,-0.196164 9.4663,-0.129814 18.89636,0.777376 28.30089,1.737626 10.73865,1.25896 21.49912,2.25302 32.27572,3.11048 5.05722,0.38017 10.1294,0.60095 15.12718,1.50176 0.87536,0.28138 3.14097,0.22039 3.68372,1.15008 0.10864,0.18609 0.15244,0.40311 0.22866,0.60466 -0.0625,0.33895 -0.0251,0.42991 -0.28804,0.68406 -0.32387,0.31307 -0.85494,0.67387 -1.24136,0.89603 -2.92851,1.68365 -5.87587,3.3343 -8.8138,5.00146 -1.66847,0.55229 -3.29902,1.18641 -4.87181,1.97994 -3.60505,1.48349 -12.04032,6.57272 2.58618,-1.79257 0,0 -8.90755,3.46963 -8.90755,3.46963 v 0 c 4.53049,-2.65048 8.96853,-5.55477 13.80652,-7.63948 1.61372,-0.71952 3.27863,-1.29533 4.89517,-2.00267 -2.3809,1.38297 -9.49872,5.57449 -7.12764,4.17473 0.25686,-0.15163 0.43578,-0.41683 0.69636,-0.56196 0.14046,-0.0782 0.3856,-0.0494 0.54101,-0.0416 0.10034,0.10951 0.21395,0.20819 0.30101,0.32852 0.11026,0.15238 -0.34146,-0.16098 -0.52143,-0.21565 -0.89967,-0.27328 -1.8394,-0.37466 -2.75146,-0.59458 -4.87063,-0.92904 -9.82526,-1.19897 -14.75589,-1.65134 -3.03236,-0.27195 -6.0686,-0.50068 -9.09951,-0.78838 -7.68403,-0.72939 -15.33444,-1.78803 -23.02584,-2.44674 -9.4718,-0.93762 -18.97719,-1.6496 -28.50364,-1.47829 -5.63741,0.0577 -11.28288,-0.005 -16.91115,0.37008 -4.01151,0.36078 -8.01055,0.91878 -11.87895,2.08224 -3.23226,0.84496 -6.44729,1.75174 -9.68085,2.59165 -3.67886,1.06419 -7.3269,2.2776 -11.08847,3.02156 -3.15171,0.64039 -6.34203,1.27667 -9.57433,1.009 -2.13357,-0.10533 -4.32533,-0.18418 -6.34357,-0.95322 -0.22656,-0.17096 -0.49678,-0.29585 -0.6797,-0.51288 -0.62883,-0.7461 -0.37155,-1.89678 0.44069,-2.43487 5.51898,-3.65619 7.34615,-4.62086 11.79028,-7.07771 14.17122,-6.735724 29.40434,-10.908484 44.49654,-15.014338 3.85926,-0.983192 7.7017,-2.034937 11.57777,-2.949576 11.65136,-2.749376 23.47213,-4.659548 35.33494,-6.215152 3.14779,-0.465946 3.32391,-0.526995 6.08454,-0.833168 1.58491,-0.175779 3.40016,-0.464368 5.00814,-0.287056 0.31524,0.03476 0.61251,0.164866 0.91877,0.247299 -2.5207,1.909876 -4.98808,3.892233 -7.56208,5.729629 -0.22628,0.161523 -0.53074,0.16629 -0.79912,0.238824 -0.48426,0.130875 -0.97084,0.253214 -1.45837,0.371286 -2.78962,0.675588 -5.60033,1.260106 -8.40529,1.867077 -7.61004,1.750864 -15.16688,3.691294 -22.63745,5.972099 -4.94726,1.551746 -9.97201,2.982361 -14.66551,5.215421 -2.15504,0.983757 -4.34948,1.890464 -6.63032,2.543803 -0.73083,0.179272 -2.74022,0.723492 -3.40522,0.176672 -0.21691,-0.178358 -0.36192,-0.429502 -0.54288,-0.644256 -0.72706,-3.501603 7.77971,-5.596377 11.42949,-6.247835 2.32403,-0.259347 4.64793,-0.238894 6.98159,-0.08707 2.58989,0.160526 5.15964,0.474461 7.66116,1.19903 2.38568,0.67529 4.73394,1.524324 6.75698,2.997974 1.35019,0.925714 2.70187,1.82187 3.17837,3.488367 0.38202,1.37093 0.51429,2.68878 0.44803,4.11168 0.0258,0.13595 0.0401,0.55582 0.24523,0.65383 0.7653,0.36565 3.48364,-0.78666 4.25218,-0.71012 7.41066,-1.628 14.93047,-2.70983 22.35939,-4.25101 8.47458,-1.65284 16.93612,-3.387628 25.21377,-5.875062 2.01278,-0.532515 4.0211,-1.09157 6.05965,-1.519646 0.54378,-0.114188 2.01002,-0.723204 1.6377,-0.310756 -4.44408,4.923064 -4.01329,4.674992 -7.07294,5.961813 -4.58288,1.654241 -9.39287,2.578991 -14.04429,4.012541 -9.38041,2.76147 -18.67742,5.77787 -27.89783,9.03644 -5.77097,1.94911 -11.55228,3.88811 -17.2082,6.15468 -3.63747,1.3954 -7.31431,2.89054 -11.18803,3.45877 -3.98207,-0.21796 -1.35781,0.11805 6.53224,-5.86336 0.10622,-0.0805 0.25991,-0.0594 0.38902,-0.0925 0.40234,-0.10322 0.80248,-0.21493 1.20524,-0.31646 0.82324,-0.20753 1.64536,-0.4201 2.47268,-0.61072 1.36373,-0.31421 2.73331,-0.60243 4.09996,-0.90365 23.95,-4.95386 48.07212,-9.01105 72.27802,-12.50167 5.9199,-0.8173 11.83471,-1.672355 17.7597,-2.4519 24.43831,-3.215328 48.94595,-5.858469 73.40606,-8.895858 5.52133,-0.721915 11.0419,-1.480437 16.58018,-2.057484 1.68744,-0.09479 3.41678,-0.179571 5.08778,0.110733 -2.47085,1.93587 -4.90826,3.915215 -7.41257,5.807609 -0.0893,0.06749 -0.22236,0.0268 -0.33279,0.04521 -0.26783,0.04466 -0.53381,0.10013 -0.80178,0.143951 -2.31539,0.378631 -4.64588,0.656836 -6.97203,0.958228 -14.25715,1.68818 -28.582,2.777152 -42.90372,3.739632 -19.1187,1.162957 -38.24392,2.207189 -57.36857,3.266549 -6.49289,0.41964 -13.0102,0.85728 -19.42945,1.96472 -4.01633,0.82517 -7.9663,1.87133 -11.85411,3.18269 -4.13485,1.31218 -8.26137,2.65313 -12.29464,4.25697 -4.07592,1.5982 -8.08056,3.37008 -12.05072,5.21441 -3.82866,2.08891 -2.81469,1.55544 4.45428,-2.63733 0.57469,-0.33148 -1.15454,0.6545 -1.71914,1.00288 -0.91126,0.56229 -2.31855,1.52121 -3.19468,2.14875 -0.44649,0.3198 -0.88194,0.65476 -1.32291,0.98215 -1.4255,1.17989 -2.84776,2.42478 -3.40081,4.25924 -0.0463,0.36169 -0.1781,0.75495 0.0543,1.09837 0.79114,1.16904 4.47563,0.26477 5.38844,0.28691 8.03391,-1.21253 -1.03731,0.18543 9.09859,-1.49675 13.51844,-2.24355 27.07589,-4.25282 40.63628,-6.22268 29.43378,-4.15609 58.94013,-8.18322 88.68036,-9.26036 18.32461,-0.53046 36.65183,-0.85352 54.97619,-1.37846 4.96848,-0.0685 9.93914,-0.15218 14.90781,-0.0767 4.21846,0.48966 2.35734,-0.0277 -5.98653,5.89406 -0.29105,0.20656 -0.70614,0.10481 -1.06037,0.14836 -0.80672,0.0992 -1.61426,0.19179 -2.42227,0.27973 -1.36976,0.14908 -2.74011,0.29279 -4.11097,0.43134 -2.11753,0.21401 -4.23611,0.41755 -6.35417,0.62633 -31.09004,2.93013 -62.19442,5.81695 -93.36903,7.68923 -2.73557,0.12843 -30.01122,1.41215 -32.81691,1.53117 -13.80328,0.58553 -27.61792,0.86866 -41.41518,1.60243 -6.26808,0.38771 -12.54859,0.71854 -18.76872,1.62515 -4.03726,0.12256 -1.6097,0.26731 5.87447,-5.73499 0.0643,-0.0516 0.165,0.0107 0.2472,0.005 0.25504,-0.0184 0.50882,-0.0514 0.76317,-0.0778 0.45123,-0.0467 0.90256,-0.0926 1.35357,-0.14148 0.68718,-0.0744 1.37399,-0.15228 2.06098,-0.22841 9.86006,-1.20467 19.67318,-2.78382 29.45898,-4.48119 21.73963,-3.7823 43.37828,-8.10715 65.06149,-12.19531 21.75183,-4.154557 43.5935,-7.841703 65.49492,-11.118364 9.80809,-1.511181 19.65912,-2.806045 29.39613,-4.735631 3.07646,-0.651724 6.11584,-1.381575 9.28998,-1.157599 1.22891,-0.01306 2.46975,-0.06568 3.69775,0.01008 3.96242,0.244437 -1.15088,1.547103 -6.58981,5.8605 -3.88884,0.552983 -7.74943,1.30936 -11.64594,1.814199 -17.25797,2.408182 -34.60526,4.188691 -51.93268,6.004077 -15.7368,1.359118 -31.50505,2.809838 -47.31152,2.879848 -0.64521,3.9e-4 -5.7411,0.0206 -6.79076,-0.0345 -0.49162,-0.0258 -1.80437,0.16334 -1.46428,-0.1926 5.26283,-5.508032 5.25274,-5.65953 10.29278,-6.202073 13.43687,-1.368106 26.9186,-2.245778 40.40686,-2.919346 12.2209,-0.41871 24.45111,-0.595058 36.67881,-0.40531 3.0915,0.07052 6.17872,0.247862 9.26163,0.474821 0.56277,0.141762 0.8846,0.121981 1.26904,0.631746 2.74359,3.637904 -6.91464,5.193133 -10.18169,6.565085 -3.7923,1.101487 -7.67174,1.885307 -11.43286,3.096847 -3.90088,1.327 -7.85258,2.60565 -11.52318,4.50019 -3.18797,1.71471 -4.13777,2.24467 5.59917,-3.32304 0.38135,-0.21807 -0.74541,0.46543 -1.10916,0.71174 -1.03014,0.69755 -2.05566,1.43012 -2.91117,2.33986 -1.08444,1.79527 -1.50196,2.45128 -0.52922,4.46306 0.6687,1.05491 1.42021,1.79179 2.7166,1.98851 1.74486,0.18498 3.43993,-0.42818 5.07936,-0.95941 3.52984,-1.2877 6.98109,-2.78644 10.55143,-3.96482 5.72958,-1.81162 11.52185,-3.41487 17.35558,-4.85671 5.81955,-1.45388 11.63152,-2.98344 17.59243,-3.756301 4.05189,-0.568575 8.12101,-1.201664 12.22378,-1.160927 2.39497,-0.0303 4.84041,-0.216691 7.20965,0.166418 -2.44893,1.93327 -4.85042,3.92819 -7.34679,5.7998 -0.15587,0.11687 -0.37822,0.0939 -0.56871,0.13472 -0.43238,0.0927 -0.86526,0.18339 -1.29971,0.2658 -3.62199,0.68707 -7.26618,1.25195 -10.89697,1.88858 -20.19231,3.36866 -40.46049,6.28481 -60.59702,9.98912 -12.38663,2.1718 -24.72862,4.5563 -37.04666,7.08588 -1.07097,0.0758 -2.66696,0.29436 -3.0579,-1.09369 -0.0602,-0.21394 -0.0549,-0.46809 0.0481,-0.66506 0.14175,-0.27113 0.42823,-0.43707 0.64235,-0.65561 3.10208,-1.79753 6.18676,-3.62546 9.30626,-5.3926 0.97702,-0.55346 2.943,-1.40501 3.8998,-1.81612 2.93071,-1.25922 5.88613,-2.46663 8.88405,-3.55719 6.55722,-2.49468 13.19111,-4.77718 19.86997,-6.92507 3.75063,-1.20042 7.57653,-2.27799 11.13911,-3.97654 3.49574,-1.966881 -3.36588,1.87904 -7.16921,4.68191 -0.15092,0.11122 0.275,0.26318 0.36585,0.42717 0.0707,0.1277 -1.65751,0.0125 -1.55352,0.13748 -2.31841,0.1617 -4.63052,0.45706 -6.95586,0.47302 -1.38534,0.0207 -2.7771,0.0486 -4.1568,-0.10077 -1.31081,-0.21866 -2.51427,-0.64013 -2.9128,-2.0492 -0.10583,-1.84916 0.96372,-2.97404 2.08789,-4.323718 1.40759,-1.462786 2.83801,-2.903795 4.38385,-4.219411 0.51455,-0.517082 0.82589,-1.134029 1.36738,-0.21254 0.0311,0.05293 -2.7336,0.189241 -2.47895,0.46221 -12.64839,2.584204 -25.34824,4.891929 -38.10444,6.890149 -23.72027,3.94102 -47.48475,7.66658 -71.38943,10.31635 -11.50104,1.12882 -23.02778,2.45769 -34.60394,2.24054 -0.49878,-0.0179 -2.27202,-0.0278 -2.89681,-0.21695 -0.33547,-0.10156 -1.19223,-0.2517 -0.93213,-0.48665 4.59259,-4.14848 5.52015,-5.19389 9.68068,-6.22299 5.27665,-1.15342 10.61172,-2.05778 15.96054,-2.80102 4.95382,-0.79049 9.89299,-1.73347 14.9078,-2.05462 1.53959,-0.087 3.22825,-0.3392 4.7697,-0.16897 0.39425,0.0435 1.43781,0.007 1.15523,0.28527 -4.98858,4.91359 -4.64968,4.71931 -7.90571,6.08513 -2.8387,1.10308 -5.72517,2.07609 -8.64632,2.9382 -4.18741,1.28702 -8.43241,2.3982 -12.51468,4.00606 -3.07141,1.11374 -6.1598,2.19066 -9.33986,2.95779 -1.54315,0.35249 -3.24343,0.84029 -4.84145,0.82056 -0.30617,-0.004 -1.13323,0.10055 -0.91186,-0.11099 2.22459,-2.12572 4.76309,-3.89652 7.14463,-5.84479 4.00728,-1.03164 8.10555,-1.69 12.15657,-2.5161 10.83974,-1.82317 21.719,-3.39476 32.56457,-5.18193 7.18059,-1.23664 14.35251,-2.53883 21.47624,-4.0731 0.63558,-0.13132 2.32952,-0.88639 1.90675,-0.39397 -5.26897,6.13695 -5.37486,5.4722 -11.41211,6.27531 -13.09336,1.74707 -26.21667,3.2736 -39.34739,4.70978 -18.77307,1.89919 -37.54672,3.96683 -56.40667,4.78058 -6.88985,0.21301 -13.8346,0.66535 -20.70631,-0.0858 -2.10021,-0.3273 -4.26747,-0.69888 -6.1173,-1.81046 -0.8821,-0.66869 -1.65106,-1.46489 -1.9429,-2.56592 -0.14932,-0.97757 -0.42465,-1.92709 -0.51721,-2.91163 -0.73112,-1.92497 -3.25471,-1.65664 -4.9301,-1.82887 -12.67417,-0.24495 -25.35507,0.41533 -38.02169,0.727 -16.5363,0.72615 -33.05496,1.77964 -49.5995,2.3197 -13.60629,0.50836 -27.21257,1.06854 -40.79785,1.99675 -7.78758,0.57136 -15.59039,1.06218 -23.34468,1.99357 -0.37173,0.0528 -0.74291,0.10963 -1.11518,0.15849 -0.28015,0.0368 -1.05111,0.28827 -0.84191,0.0983 4.72972,-4.29402 5.28834,-5.2219 9.5085,-6.71881 2.69329,-1.07271 5.41354,-2.08116 8.0675,-3.24993 2.89515,-1.27007 5.81951,-2.46833 8.81246,-3.49172 2.39028,-0.83748 4.76652,-1.7225 7.01232,-2.904485 1.70301,-0.713002 3.37666,-1.492757 5.06481,-2.239909 1.64508,-0.753783 3.33115,-1.416885 4.95976,-2.205821 1.7711,-0.867296 3.6003,-1.589036 5.39343,-2.407576 3.60798,-1.741673 7.27755,-3.346219 11.00267,-4.822584 2.8315,-1.132982 5.6841,-2.223571 8.46367,-3.477371 0.76419,-0.282807 1.5376,-0.577256 2.32093,-0.80458 0.22508,-0.06532 0.45132,-0.132882 0.68348,-0.164985 0.18236,-0.02522 0.69233,-0.125378 0.55227,-0.0059 -2.37208,2.0236 -4.89391,3.864785 -7.34086,5.797177 -2.37623,0.857825 -4.86669,1.334229 -7.32248,1.900087 -4.69686,0.961371 -9.39853,1.89821 -14.10569,2.807707 -3.51555,0.775362 -7.03799,1.700769 -10.65983,1.75586 -1.68757,-0.002 -3.41931,0.08507 -5.07122,-0.309145 -0.15822,-0.08341 -0.3353,-0.138093 -0.47464,-0.250219 -0.23361,-0.187984 -1.04328,-1.178115 -0.51556,-1.515148 7.21713,-4.609282 5.66608,-3.950761 9.40896,-5.427574 2.8728,-0.803145 5.82947,-1.250813 8.75809,-1.797481 3.44298,-0.521289 6.8802,-1.046559 10.37665,-0.825884 2.76724,0.02446 5.55803,-0.03519 8.30274,0.360671 1.63426,0.326109 3.2695,0.781386 4.74306,1.575321 1.64436,1.127688 2.11238,2.253235 0.27314,3.536525 -5.50881,3.182754 -10.81778,6.533712 -16.7885,8.751046 -3.98924,1.531938 -8.03192,3.029728 -12.23349,3.863508 -1.66019,0.19015 -4.55889,0.66004 -6.15516,0.27848 -0.28182,-0.0674 -0.53562,-0.22125 -0.80343,-0.33187 2.4586,-1.96095 4.87558,-3.975246 7.3758,-5.882854 0.16096,-0.122814 0.38348,-0.130631 0.57825,-0.18591 0.32039,-0.09093 0.64206,-0.178089 0.96666,-0.252551 1.69765,-0.38943 3.42542,-0.615596 5.14328,-0.892637 5.89514,-0.800666 11.77613,-1.707641 17.68369,-2.415355 4.19399,-0.564477 8.38754,-1.209424 12.62453,-1.333925 2.09105,-0.01096 4.21635,-0.119233 6.28602,0.209821 0.20002,0.131415 0.44054,0.215825 0.60004,0.394245 0.0714,0.07985 0.66638,0.882601 0.24731,1.140448 -4.36139,2.683482 -7.13602,4.690577 -11.48778,5.979568 -8.40398,2.34675 -16.91912,4.2734 -25.46634,6.02142 -14.70905,2.92164 -29.42336,5.82793 -44.21051,8.33215 -5.63068,0.9147 -11.24595,1.78373 -16.94703,2.13374 -1.66472,0.1022 -5.48856,0.10034 -7.22441,0.11941 -1.00684,0.0111 -2.01359,0.0296 -3.02038,0.0445 -0.98981,0.004 -2.72068,0.016 -3.74451,0.001 -0.87067,-0.0126 -2.5743,0.17857 -3.2985,-0.54305 -0.24854,-0.24765 -0.33484,-0.61668 -0.50227,-0.92503 2.88819,-1.6812 5.7452,-3.41715 8.66456,-5.04361 0.45288,-0.25232 3.1259,-1.00591 3.16193,-1.01591 4.38094,-1.216 8.83205,-2.15216 13.24658,-3.23335 20.11695,-4.57115 40.39709,-8.401781 60.82267,-11.321438 10.22004,-1.411068 20.44101,-2.808997 30.70739,-3.849122 5.25697,-0.532604 10.52764,-0.922229 15.78629,-1.437961 1.94481,-0.190733 3.88748,-0.402777 5.83121,-0.604166 4.82534,-0.435749 9.66275,-1.102574 14.51713,-0.902685 5.11916,0.447637 0.73667,1.521584 -5.63339,6.118619 -0.1756,0.126725 -0.41989,0.106669 -0.63181,0.151228 -0.43863,0.09223 -0.87819,0.180514 -1.31947,0.259055 -0.70072,0.124715 -1.40414,0.233767 -2.10621,0.35065 -10.6286,1.563948 -21.3002,2.827345 -31.96806,4.088223 -11.5424,1.184747 -23.1172,2.299797 -34.73142,2.338317 -3.33002,0.0229 -6.66011,0.0304 -9.99012,0.0552 -0.22685,0.001 -1.45479,0.008 -1.73051,0.0109 -0.22213,0.003 -0.83678,0.1539 -0.66633,0.0114 6.78758,-5.672823 4.50688,-5.746266 8.54817,-5.632066 4.10018,0.05863 8.201,0.04815 12.30148,0.06131 5.51105,-0.0069 11.02222,-0.03767 16.53313,-0.07765 1.95799,-0.03047 3.91673,-0.0667 5.87511,-0.05009 0.55935,0.0047 2.02243,0.01408 2.63613,0.114854 0.28913,0.04748 0.56286,0.163061 0.84429,0.244591 -2.47256,1.935709 -4.89702,3.934472 -7.41767,5.807131 -0.18166,0.13496 -0.43286,0.13292 -0.6523,0.18826 -0.45499,0.11474 -0.91147,0.22408 -1.37041,0.32185 -3.47318,0.73992 -6.98171,1.30315 -10.47589,1.93029 -16.4417,2.6442 -32.90568,5.16883 -49.41757,7.33691 -16.7435,2.21907 -33.5062,4.29046 -50.30051,6.08915 -5.13785,0.46501 -10.27683,0.86166 -15.43231,1.07627 -1.28538,0.0356 -2.06712,0.0967 -3.31966,-0.005 -0.38152,-0.031 -1.40813,0.11223 -1.13737,-0.15834 5.46586,-5.46192 5.05576,-5.61502 10.05845,-6.26737 18.26658,-2.2124 36.59192,-3.90009 54.8865,-5.85624 25.861,-2.60031 51.74357,-5.03356 77.68741,-6.645018 13.02934,-0.753862 26.05946,-1.657023 38.99327,-3.459049 2.06805,-0.326682 4.13544,-0.649198 6.1965,-1.017833 4.91321,-0.878758 5.24927,-1.939404 -4.53755,5.14443 -2.34013,0.0264 -4.69799,0.39028 -7.01757,0.6328 -4.23603,0.44289 -7.31445,0.7354 -11.67837,1.16256 -17.93814,1.72013 -35.87304,3.48843 -53.84637,4.80832 -8.74599,0.57245 -17.48953,1.35211 -26.2632,1.2802 -3.90087,0.0182 -7.80737,0.11151 -11.70553,-0.0517 -3.90163,-0.62162 -1.31819,0.003 6.47955,-5.948 0.12074,-0.0921 2.00365,-0.28341 2.07522,-0.29136 0.40619,-0.0451 0.81386,-0.0757 1.22078,-0.11354 5.66158,-0.30761 11.32809,-0.56312 16.99979,-0.53893 15.16845,-0.16148 30.33723,-0.33564 45.50656,-0.12262 14.92102,0.0622 29.8428,-0.0425 44.7626,0.1881 2.26095,0.0198 1.92577,0.0343 3.73886,0.004 0.32572,-0.005 1.22044,-0.23828 0.97705,-0.0217 -8.18739,7.28401 -4.25671,5.76995 -8.06092,5.62932 -8.95202,-0.17115 -17.908,0.0804 -26.85746,0.26422 -13.7703,0.48373 -27.52614,1.22849 -41.28182,2.02224 -9.35345,0.61088 -18.68904,1.44442 -28.0437,2.02729 -2.90487,0.29624 -5.7507,0.86985 -8.64004,1.23947 -3.83287,-0.56055 -1.20673,0.005 6.7214,-5.89537 0.23905,-0.17791 2.19376,-0.35559 2.39946,-0.37961 0.46239,-0.054 0.92625,-0.0946 1.38937,-0.14183 6.01142,-0.6602 12.03083,-1.23393 18.07968,-1.42031 11.86329,-0.43038 23.7316,-0.58744 35.60272,-0.5534 8.1247,-0.016 16.24901,-0.1144 24.37369,-0.0902 3.33844,0.0114 6.69854,-0.0828 10.01565,0.36502 0.78246,0.13289 2.71135,0.29063 3.29469,0.88464 0.15827,0.16118 0.26059,0.36906 0.39089,0.55359 0.98287,4.03882 -7.4061,5.20802 -11.00354,5.9748 -2.49345,0.40363 -4.93746,1.07336 -7.45039,1.36693 -6.46067,0.86933 -12.97699,1.24916 -19.43796,2.12424 -13.3744,1.65578 -26.74841,3.35286 -40.19094,4.36796 -11.91266,0.86382 -23.82949,1.68961 -35.77425,1.93041 -7.3172,0.35001 -14.63065,0.81482 -21.95568,0.97017 -3.41394,0.10516 -6.82165,0.29249 -10.22589,0.53548 -3.82142,-0.27601 -1.15942,0.0869 6.48289,-5.9241 0.0484,-0.038 0.11743,0.0464 0.17898,0.0455 0.53025,-0.008 1.05577,-0.23908 1.5815,-0.27567 1.69811,-0.27765 3.43124,-0.24553 5.12629,-0.56188 1.65799,-0.31865 3.30985,-0.66142 4.98675,-0.87448 1.87209,-0.22368 3.75366,-0.38292 5.55634,-0.98081 1.97029,-0.43554 3.97464,-0.64594 5.94977,-1.05689 2.54817,-0.57234 5.08911,-1.17009 7.65238,-1.6731 1.69011,-0.36632 3.3675,-0.79184 5.0674,-1.11386 1.59002,-0.30324 3.13281,-0.87938 4.75888,-0.93341 1.33379,0.002 2.66787,0.007 4.00132,-0.0288 1.38217,-0.0497 2.77107,-0.11887 4.12125,-0.4444 1.69365,-0.37075 3.41288,-0.52547 5.12317,-0.80213 2.76392,-0.46443 5.55934,-0.70086 8.33232,-1.1065 3.81705,-0.46644 7.57022,-1.30933 11.38915,-1.77205 4.91814,-0.86577 9.74487,-2.13634 14.63783,-3.12929 5.10909,-1.13109 10.26602,-2.04022 15.33556,-3.341116 3.8334,-0.94922 7.62442,-2.055393 11.46588,-2.968814 4.04753,-0.864267 8.08327,-1.774242 12.08196,-2.846669 3.25868,-0.856455 6.56413,-1.524086 9.81124,-2.427764 2.08702,-0.549226 4.19658,-1.019039 6.2625,-1.642383 1.98084,-0.622536 3.9381,-1.316911 5.95904,-1.804987 2.33998,-0.775928 4.64817,-1.666611 6.86567,-2.746921 0,0 -7.49315,5.993812 -7.49315,5.993812 z"
     inkscape:connector-curvature="0" />
  <path
     style="fill:#ff0000"
     id="path4669"
     d="m 477.37486,138.68008 c -0.0686,3.20615 -0.0465,6.41349 -0.0279,9.62008 0.0152,2.19802 0.0249,4.39606 0.0296,6.59412 0.003,1.82982 0.003,3.65964 0.003,5.48946 -0.10368,1.81177 0.0617,3.58114 0.36037,5.36371 0.31389,1.72106 0.32802,3.46987 0.71736,5.176 0.67245,1.52238 0.98744,3.15234 1.46324,4.73454 0.37913,1.43856 1.06497,2.75478 1.49262,4.17622 0.57492,1.28824 0.92359,2.65005 1.43309,3.96209 0.83024,1.5161 1.29638,3.14736 1.5811,4.84134 0.064,1.65036 0.46886,3.23964 0.77416,4.85331 0.30108,1.65207 0.76632,3.25274 1.00828,4.92074 0.43016,1.63551 0.81615,3.26806 1.0237,4.94811 0.40475,1.95936 0.57613,3.96579 0.98934,5.92102 0.46724,1.62385 0.70819,3.29428 1.1183,4.93126 0.47984,1.79567 0.6563,3.64446 0.76088,5.49364 0.12204,1.63255 0.0833,3.24497 -0.17951,4.85814 0,0 -12.63791,5.16733 -12.63791,5.16733 v 0 c 0.14379,0.035 0.30276,0.1781 0.43138,0.10492 0.62245,-0.35416 0.27932,-3.25395 0.31761,-3.90627 -0.0735,-1.76459 -0.19285,-3.535 -0.63739,-5.25209 -0.42515,-1.64905 -0.69142,-3.32022 -1.13332,-4.96578 -0.47121,-1.99019 -0.53462,-4.06388 -1.06552,-6.04867 -0.16887,-1.677 -0.5163,-3.30947 -0.99754,-4.92562 -0.21106,-1.65753 -0.6773,-3.23047 -0.99906,-4.85847 -0.28204,-1.63164 -0.77326,-3.22134 -0.7811,-4.89101 -0.2221,-1.61172 -0.62857,-3.15223 -1.4597,-4.56942 -0.52631,-1.35222 -0.88648,-2.7492 -1.48874,-4.07352 -0.38596,-1.42561 -1.11084,-2.71492 -1.47029,-4.15066 -0.51883,-1.60087 -0.7451,-3.29476 -1.51174,-4.81995 -0.42164,-1.73781 -0.49316,-3.49416 -0.74202,-5.26251 -0.31295,-1.85129 -0.6181,-3.67487 -0.46692,-5.56348 0,-1.8308 -1.9e-4,-3.66159 0.003,-5.49238 0.005,-2.20811 0.0144,-4.4162 0.0296,-6.62427 0.0184,-3.1971 0.0411,-6.39498 -0.0279,-9.59163 0,0 12.09027,-6.1603 12.09027,-6.1603 z"
     inkscape:connector-curvature="0" />
  <path
     style="fill:#ff0000"
     id="path4671"
     d="m 478.79994,146.26368 c 3.0042,0.71837 5.96933,1.55572 9.02219,2.05515 1.82726,0.48195 3.631,0.98122 5.43344,1.52527 2.09419,0.3834 4.18408,0.82598 6.23434,1.40651 2.62965,0.45024 5.23607,0.98719 7.85569,1.49275 2.5292,0.59568 5.04748,1.24891 7.5967,1.75829 2.37103,0.40677 4.77659,0.50964 7.17701,0.55768 1.72577,0.0137 3.39003,0.54069 5.10498,0.73771 2.04489,0.0607 4.04516,0.19591 6.06293,0.51842 2.80102,0.35907 5.62584,0.47157 8.44647,0.54325 1.99252,0.0311 3.98588,0.05 5.97855,0.0221 0,0 -11.00683,7.9965 -11.00683,7.9965 v 0 c -1.9818,-0.0298 -3.96454,-0.0175 -5.9453,-0.10205 -2.85662,-0.11963 -5.71517,-0.28399 -8.55185,-0.65423 -2.02296,-0.26954 -4.06101,-0.24407 -6.08737,-0.48417 -1.66054,-0.26006 -3.30073,-0.69987 -4.99588,-0.64134 -2.44302,-0.10157 -4.88818,-0.28317 -7.28877,-0.77257 -2.53814,-0.56385 -5.06354,-1.18283 -7.60353,-1.73914 -2.62857,-0.5544 -5.27511,-0.99399 -7.90186,-1.55378 -2.09658,-0.50173 -4.20516,-0.94568 -6.30334,-1.43426 -1.73809,-0.55527 -3.51971,-0.96913 -5.28532,-1.42571 -3.05159,-0.60341 -6.03274,-1.49591 -9.0891,-2.07434 0,0 11.14685,-7.73202 11.14685,-7.73202 z"
     inkscape:connector-curvature="0" />
  <path
     style="fill:#ff0000"
     id="path4673"
     d="m 493.41481,183.7143 c 3.0864,0.90547 6.1666,1.85699 9.29794,2.59784 2.4328,0.7772 4.89416,1.46779 7.31066,2.29177 1.91177,0.79389 3.99901,0.80797 5.97856,1.28567 1.79242,0.54379 3.68659,0.4905 5.4943,0.91368 1.75661,0.2341 3.40337,0.80049 5.10327,1.25806 1.60921,0.36854 3.2666,0.4034 4.90948,0.43959 1.20088,0.0186 2.40193,0.0162 3.60291,0.0151 0,0 -10.98644,7.98033 -10.98644,7.98033 v 0 c -1.21081,-0.004 -2.42192,-0.006 -3.63213,-0.0495 -1.72132,-0.0794 -3.45162,-0.20232 -5.111,-0.70403 -1.64926,-0.49912 -3.31697,-0.87141 -5.0164,-1.165 -1.84457,-0.25564 -3.69468,-0.47013 -5.50359,-0.93405 -2.04626,-0.34036 -4.09095,-0.68256 -6.03955,-1.43044 -2.40621,-0.75022 -4.79198,-1.56296 -7.22133,-2.23618 -3.11828,-0.81738 -6.19313,-1.7963 -9.33353,-2.53084 0,0 11.14685,-7.73202 11.14685,-7.73202 z"
     inkscape:connector-curvature="0" />
  <path
     style="fill:#ff0000"
     id="path4675"
     d="m 571.74627,227.80985 c 1.02662,2.64136 2.38452,5.1111 4.55945,6.96474 -0.79839,1.9584 2.81372,-0.89712 2.1557,-0.53308 -10.94265,6.054 -13.80308,9.82197 -10.70372,5.88839 0.71656,-1.72963 0.76933,-3.61141 0.54748,-5.44374 -0.20002,-1.40682 -0.42013,-2.98038 -1.78202,-3.6883 -1.12049,-0.92559 -2.50494,-1.08892 -3.89977,-1.21206 -1.76783,-0.19434 -3.46643,-0.0795 -5.19756,0.26299 -1.79669,0.71172 -3.63015,1.34587 -5.39459,2.13466 -4.25907,1.79067 -10.86049,5.81992 9.26724,-5.44959 1.12163,-0.628 -1.06607,0.82899 -1.50182,1.25707 -0.60271,0.34366 1.13465,0.72604 1.4514,0.79579 0.80146,0.41616 1.58891,0.78341 2.49983,0.71363 0,0 -11.10958,7.87349 -11.10958,7.87349 v 0 c -0.90805,-0.24727 -1.77063,-0.59422 -2.64644,-0.93575 -1.31169,-0.53759 -2.57003,-1.38469 -2.65515,-2.93454 0.28301,-0.72787 0.64103,-1.31674 1.33731,-1.73642 5.13857,-3.09719 8.91438,-6.01855 14.01421,-7.98186 1.83934,-0.69641 3.63888,-1.5556 5.5899,-1.89529 1.80821,-0.24098 3.63413,-0.16888 5.44355,0.0495 1.56136,0.26348 3.023,0.72066 4.27276,1.73831 1.46428,1.19092 2.10693,2.82303 2.31627,4.68546 0.30751,2.05364 0.30961,4.08328 -0.18888,6.11787 -1.41166,5.45016 -0.0579,1.09993 -12.25003,8.31998 -1.01576,0.60151 -2.35623,-0.31858 -3.09448,-0.89781 -2.13327,-2.10829 -3.64774,-4.62452 -4.82353,-7.37899 0,0 11.79247,-6.71445 11.79247,-6.71445 z"
     inkscape:connector-curvature="0" />
  <path
     style="fill:#ff0000"
     id="path4677"
     d="m 637.4475,129.35463 c 0.70306,2.90543 1.83247,5.67556 2.66058,8.54243 0.77358,1.89627 1.2271,3.87979 1.4902,5.90389 0.17355,1.88029 0.16248,3.75832 0.41933,5.6304 0.21039,2.43488 0.77147,4.79945 1.34318,7.16795 0.66286,2.67585 1.23785,5.37816 2.01477,8.0243 0.70534,2.54685 1.58212,5.03749 2.4368,7.5365 0.98074,2.31252 1.77493,4.6819 2.52536,7.07531 0.84096,2.32092 1.74123,4.62624 2.46696,6.98663 0.43962,1.99761 0.96275,3.97913 1.34709,5.98916 0.45274,1.46184 0.8033,2.94884 1.33718,4.38332 0.7981,1.60562 1.37707,3.30259 2.01439,4.97453 0.80635,1.91195 1.93518,3.64398 2.79118,5.53163 0.87622,1.86426 2.21458,3.45585 3.38113,5.1395 1.02343,1.4371 2.49123,2.42841 3.7538,3.62704 1.10305,1.01744 2.53306,1.15082 3.96084,1.26145 2.01276,0.0964 4.02891,0.0656 6.04328,0.0729 2.98993,-0.17004 5.87495,-0.98484 8.67632,-2.00184 3.60795,-1.21949 7.01596,-2.8951 10.53309,-4.34618 0.69239,-0.31106 1.37828,-0.637 2.07717,-0.93317 2.54854,-1.08003 1.49438,-0.48134 3.94833,-1.70947 2.02266,-1.01228 3.97047,-2.14077 6.0094,-3.12356 4.94144,-2.62922 19.67563,-10.97724 -1.36717,1.05302 2.22974,-1.29589 4.20736,-2.94898 6.10223,-4.68428 1.7568,-1.4239 2.78369,-3.3363 3.68894,-5.36027 0.73014,-2.33583 1.06678,-4.77375 1.53597,-7.17285 0.48454,-2.39936 0.53245,-4.85 0.58851,-7.28786 0.0485,-2.87446 0.0334,-5.74951 0.0161,-8.62418 -0.18281,-2.26767 -0.53734,-4.51555 -0.74198,-6.78169 -0.32528,-1.90444 -0.71119,-3.79177 -0.92034,-5.71436 4.1e-4,-1.51771 -0.47375,-2.84605 -1.22232,-4.13706 -0.86476,-1.19134 -1.97998,-2.07236 -3.1042,-2.98774 -1.27893,-0.97004 -2.83655,-1.1448 -4.38494,-1.26757 -2.00808,-9e-4 -3.96817,-0.45575 -5.95715,-0.69341 -0.15159,-0.0427 -1.28425,-0.40784 -1.59842,-0.36252 -0.12486,0.018 -0.41547,0.28434 -0.30376,0.22574 3.95637,-2.07539 7.69849,-4.60662 11.84167,-6.27817 0.44019,-0.17759 0.51224,0.80055 0.80024,1.17786 0.36886,0.48324 0.77866,0.9338 1.16799,1.40071 0,0 -11.52452,6.9292 -11.52452,6.9292 v 0 c -0.42365,-0.49625 -0.8693,-0.97454 -1.27095,-1.48876 -0.351,-0.44937 -1.38872,-0.99665 -0.98456,-1.39888 10.06753,-10.01938 6.82093,-9.21905 12.9427,-8.0341 1.98606,0.27294 3.96434,0.56936 5.96918,0.6651 1.75173,0.26521 3.42563,0.73162 4.81407,1.89466 1.26664,0.99621 2.42251,2.09262 3.36667,3.40969 0.8507,1.43753 1.48311,2.95954 1.484,4.66187 0.17329,1.93607 0.5176,3.8405 0.91566,5.7424 0.17189,2.30758 0.49263,4.59552 0.7671,6.89216 -0.01,2.8862 -0.0109,5.77241 -0.0278,8.65859 -0.0299,2.49466 -0.004,5.011 -0.44099,7.47557 -0.46746,2.46575 -0.94575,4.92693 -1.4637,7.38097 -0.63871,2.14295 -1.72295,4.40432 -3.42613,5.89665 -1.79874,1.90207 -3.8612,3.56723 -6.05149,4.99787 -7.18189,4.16665 -14.3181,8.34862 -21.67936,12.17811 -3.97269,2.01506 -7.90123,4.10201 -12.07512,5.68825 -3.54347,1.4925 -7.00288,3.18419 -10.67979,4.33939 -2.92129,0.90199 -5.88326,1.67672 -8.9661,1.67519 -2.0622,0.0139 -4.13425,0.0527 -6.18732,-0.1721 -1.66315,-0.26652 -3.21282,-0.74728 -4.43829,-1.97122 -1.35645,-1.23256 -2.81969,-2.373 -3.87576,-3.89442 -1.21478,-1.74755 -2.58219,-3.41115 -3.50097,-5.34525 -0.88686,-1.90003 -1.97478,-3.68607 -2.8226,-5.60553 -0.66554,-1.66633 -1.24285,-3.37059 -2.06778,-4.96864 -0.56506,-1.5125 -0.93466,-3.07053 -1.42501,-4.61003 -0.33797,-1.97431 -0.88958,-3.89981 -1.25476,-5.86819 -0.68502,-2.36556 -1.58063,-4.67081 -2.43563,-6.97852 -0.76101,-2.38008 -1.52361,-4.75009 -2.51809,-7.04835 -0.84574,-2.51938 -1.74816,-5.01832 -2.42963,-7.58982 -0.83138,-2.65504 -1.40172,-5.38245 -2.06278,-8.08267 -0.59383,-2.39809 -1.23719,-4.78237 -1.44341,-7.25514 -0.30331,-1.88485 -0.38261,-3.75503 -0.44912,-5.66288 -0.20428,-1.97027 -0.6056,-3.89724 -1.36077,-5.73819 -0.75296,-2.86194 -1.82625,-5.62664 -2.64825,-8.46844 0,0 11.87958,-6.5426 11.87958,-6.5426 z"
     inkscape:connector-curvature="0" />
  <path
     style="fill:#ff0000"
     id="path4679"
     d="m 760.10042,230.10044 c 2.11185,1.91745 4.6638,3.05978 7.30804,4.01724 0.21143,0.0907 0.45152,0.13234 0.6343,0.27206 0.15568,0.11899 0.50593,0.365 0.34461,0.47623 -3.8698,2.66823 -7.87016,5.14984 -11.93292,7.51391 -0.12184,0.0709 -1.6869,-0.374 -2.12967,-0.44819 -2.26544,-0.82847 -4.59966,-1.36786 -6.95997,-1.84654 -0.0405,-0.01 -0.91754,-0.16865 -1.04377,-0.35186 -3.58534,-5.20386 8.44128,-8.98165 13.50678,-7.79902 1.61416,0.28557 3.15254,0.81686 4.74198,1.20137 1.58323,0.38918 3.07563,0.97317 4.70419,1.20572 1.8838,0.20126 3.7821,0.18799 5.67414,0.20248 2.08274,-0.0963 4.08952,-0.4813 6.09343,-1.03192 0,0 -10.70917,8.18113 -10.70917,8.18113 v 0 c -2.09147,0.45338 -4.20091,0.7859 -6.34823,0.8036 -1.95228,-0.0153 -3.91801,-0.0146 -5.84616,-0.36212 -1.61304,-0.34381 -3.14139,-0.95195 -4.75462,-1.2947 -1.53836,-0.41964 -3.07796,-0.84142 -4.66277,-1.05177 -5.44941,-0.0128 -3.44551,2.9823 9.59053,-6.68915 0.30707,-0.22781 -0.46984,-0.61081 -0.63281,-0.95669 -0.12095,-0.25671 1.76275,1.1091 0.82528,0.20908 2.33281,0.54272 4.62766,1.21725 6.95417,1.77121 0.2443,0.041 1.1612,0.20302 1.43601,0.22023 0.18489,0.0116 0.70553,-0.1242 0.55552,-0.0155 -6.9781,5.0563 -7.89209,8.84221 -11.30046,7.34959 -2.7136,-1.12923 -5.29719,-2.49425 -7.56059,-4.39957 0,0 11.51216,-7.17681 11.51216,-7.17681 z"
     inkscape:connector-curvature="0" />
  <path
     style="fill:#ff0000"
     id="path4681"
     d="m 848.75655,141.3034 c 1.7019,1.42381 3.6497,2.62209 5.21803,4.20385 0.31892,0.32164 1.88095,2.25943 2.21371,2.66877 1.97641,2.48848 3.39176,5.41693 4.70089,8.30387 1.80067,3.62509 3.15436,7.42629 4.43227,11.25809 1.32667,3.70802 2.4483,7.46678 3.45424,11.27045 0.70802,2.4911 1.49097,4.94484 1.90109,7.50756 0.34977,2.82406 0.34018,5.68045 0.3758,8.52225 0.0221,2.1438 0.0205,4.28774 0.019,6.43162 -0.002,1.83195 -0.003,3.66389 -0.004,5.49584 0.11612,2.05329 -0.2485,4.07437 -0.52014,6.09975 -0.17415,2.09599 -0.41452,4.17125 -0.75689,6.24624 -0.34428,1.80803 -0.32183,3.65873 -0.65316,5.46623 -13.20576,6.49947 -11.812,9.41592 -15.00286,0.52482 -0.99563,-3.07698 -1.63425,-6.25765 -2.30464,-9.41788 -0.64435,-3.21142 -1.29714,-6.42055 -1.85365,-9.64845 -0.41994,-3.22948 -0.95833,-6.43007 -1.71112,-9.59845 -0.49466,-2.73856 -1.403,-5.36601 -2.0848,-8.05534 -0.60121,-2.29424 -1.31593,-4.55451 -1.9632,-6.83514 -0.52146,-1.87464 -0.67027,-3.81409 -0.75137,-5.74895 -0.17237,-1.73765 -0.004,-3.28459 0.83014,-4.8169 3.38965,-3.79248 11.67165,-7.02152 13.8204,-8.22338 0.7822,-0.43751 1.54219,-0.74924 2.39506,-1.0185 2.41804,-0.29005 4.77778,-0.85378 7.20868,-1.07435 3.29426,-0.28365 6.56407,-0.75768 9.86461,-1.00624 3.39959,-0.57306 6.8397,-0.81643 10.27926,-0.98605 3.38418,-0.4976 6.7797,-0.76625 10.19452,-0.90828 4.47092,-0.11055 8.94463,-0.10719 13.41691,-0.13319 3.20607,-0.0255 6.41221,-0.0117 9.61833,-0.0178 2.50851,-0.3599 5.06655,-0.45497 7.55128,-0.95548 2.10224,-0.36233 4.24704,-0.91839 6.38627,-0.65757 2.07527,0.74106 3.58892,2.50725 4.907,4.2049 1.38191,2.14341 2.31472,4.54335 3.34276,6.86978 1.35229,3.22525 1.93275,6.71334 2.37721,10.1639 0.26645,2.22071 0.31585,4.45759 0.3313,6.6915 0.12737,1.88094 -0.36973,3.61021 -1.20904,5.27071 -0.97151,1.97195 -2.66394,3.33296 -4.28531,4.74636 -2.74084,2.42394 -5.58427,4.69469 -8.67161,6.66093 -7.01681,4.68219 -14.35043,8.60929 -22.21169,11.53427 -3.58375,1.43562 -7.30885,2.4524 -11.03332,3.44466 -4.68801,1.10057 -9.42567,1.89378 -14.20947,2.42477 -5.30804,0.67412 -10.63593,1.07218 -15.9813,1.25575 -3.68235,0.12047 -7.36626,0.18004 -11.0504,0.201 -1.47425,0.0212 -2.94962,-0.0237 -4.42349,0.0254 1.58759,-1.34712 8.39538,-9.67454 12.63186,-6.76809 0.67405,0.46243 1.21705,1.05508 1.91993,1.49758 1.29399,1.12706 2.58124,2.23258 4.14773,2.95872 0,0 -11.35362,7.4501 -11.35362,7.4501 v 0 c -1.53666,-0.86511 -2.87605,-1.97868 -4.24338,-3.08348 -5.97477,-4.24129 -5.01559,-2.00497 7.98827,-10.08152 1.42497,0.0654 2.85329,0.0238 4.27942,0.0453 3.62277,0.009 7.24626,-0.003 10.86729,-0.12905 5.33112,-0.23004 10.6498,-0.65632 15.94182,-1.35412 4.77374,-0.57846 9.50412,-1.42312 14.1606,-2.63754 3.69101,-1.01266 7.36577,-2.09013 10.91862,-3.52733 1.96941,-0.77253 3.92002,-1.57354 5.83308,-2.47906 0.58774,-0.27819 2.30721,-1.19708 1.75008,-0.86176 -2.80271,1.68683 -14.41079,8.40465 -8.48253,4.93479 3.13662,-1.81877 6.02409,-3.97692 8.68101,-6.44805 1.6083,-1.28432 3.23902,-2.5571 4.44269,-4.23579 0.80699,-1.48234 1.64219,-2.91431 1.50041,-4.67961 0.005,-2.19725 0.003,-4.39781 -0.19664,-6.58815 -0.34553,-3.33372 -0.8293,-6.71472 -2.19797,-9.80293 -0.97136,-2.22377 -1.92056,-4.49103 -3.19202,-6.55925 -1.1151,-1.38581 -2.42377,-3.01231 -4.30712,-3.21183 -2.08472,0.0821 -4.13065,0.50642 -6.18111,0.86517 -2.54011,0.34207 -5.09579,0.63559 -7.65631,0.75319 -3.18395,-0.0112 -6.36792,-0.007 -9.55185,-0.0257 -4.46651,-0.008 -8.93501,-0.009 -13.39791,0.19551 -3.41455,0.1852 -6.80168,0.60288 -10.20432,0.92652 -3.43998,0.20566 -6.859,0.57016 -10.27461,1.02463 -3.29303,0.27731 -6.5619,0.75383 -9.85234,1.05723 -2.37233,0.33513 -4.77704,0.71175 -7.07411,1.3841 -1.71825,0.7484 0.20444,-0.10041 -1.52926,0.70111 -0.27005,0.12484 -1.07152,0.51422 -0.81556,0.36258 18.49472,-10.95705 13.5531,-7.62195 9.34372,-5.55743 -1.24494,1.06136 -1.41402,2.39094 -1.2668,3.97164 0.05,1.83775 0.13532,3.68518 0.58734,5.47653 0.61397,2.30405 1.34138,4.57563 1.94343,6.88377 0.65986,2.70186 1.5952,5.33167 2.07705,8.07974 0.74412,3.20012 1.34207,6.41806 1.70845,9.68592 0.57882,3.20757 1.23215,6.39938 1.8518,9.59881 0.64967,3.10234 1.27246,6.21972 2.24303,9.24139 0.43233,1.20574 0.87717,2.40984 1.40866,3.57661 0.10249,0.22501 0.19627,0.45724 0.33557,0.66152 0.10731,0.15735 0.55714,0.30971 0.39626,0.41166 -3.74953,2.37614 -7.6922,4.43283 -11.5383,6.64925 0.1529,0.003 0.3498,0.11557 0.4587,0.008 0.50291,-0.4958 0.26509,-3.93561 0.60007,-4.79307 0.32534,-2.06914 0.68781,-4.10945 0.77247,-6.20812 0.2493,-1.9746 0.68978,-3.93455 0.58077,-5.93416 4.9e-4,-1.83369 10e-4,-3.66737 0.008,-5.50105 0.009,-2.14832 0.0265,-4.29659 0.034,-6.44492 -0.002,-2.78208 0.006,-5.57333 -0.30065,-8.34216 -0.36051,-2.53187 -1.11571,-4.94547 -1.79471,-7.40384 -0.97411,-3.78636 -1.95755,-7.56057 -3.30642,-11.23912 -1.3134,-3.77404 -2.64598,-7.52452 -4.46348,-11.0954 -1.2454,-2.78963 -2.64098,-5.59416 -4.528,-8.00399 -0.51113,-0.63657 -1.48737,-1.89088 -2.06999,-2.45992 -1.55717,-1.52088 -3.41947,-2.74278 -5.19083,-3.98936 0,0 11.40055,-7.347 11.40055,-7.347 z"
     inkscape:connector-curvature="0" />
  <path
     style="fill:#ff0000"
     id="path4683"
     d="m 957.38474,229.32747 c -2.09193,2.19126 -4.61322,3.96995 -7.23857,5.46963 -13.74731,7.85288 -8.5464,6.12434 -15.6618,8.24061 -4.52976,0.97878 -9.16668,1.20565 -13.7849,1.30451 -9.16814,-0.007 -7.4023,1.43567 6.35802,-7.99364 1.7683,0.002 3.53659,7.5e-4 5.30489,9.1e-4 1.85673,2.5e-4 3.71346,4.1e-4 5.57019,4.9e-4 1.82968,7e-5 3.65936,7e-5 5.48903,7e-5 1.68361,0.26118 3.18588,1.04947 4.8379,1.44161 1.43537,0.60342 2.90867,1.03499 4.17264,1.96827 1.38702,1.14811 2.14549,2.82594 2.76684,4.47622 0.62048,1.85492 0.79324,3.77146 0.5898,5.7063 -0.0721,1.92056 -0.96674,3.34935 -2.14451,4.77773 -4.20555,4.67526 -10.00419,8.47142 -16.24316,9.53702 -2.71899,0.0689 -4.31934,-1.32516 -6.41777,-2.80908 -2.20958,-1.9133 -3.92297,-4.28837 -5.87681,-6.44283 -2.00849,-2.60179 -3.08268,-5.56472 -3.61064,-8.76854 -0.30883,-2.68272 -0.62413,-5.3974 -0.14196,-8.07187 2.07606,-6.08499 9.1991,-10.22821 15.49931,-10.54306 2.16142,0.43981 4.13852,1.45942 6.00005,2.60709 1.79377,1.127 3.45328,2.47465 5.34928,3.4282 1.93176,1.04239 3.69523,2.40122 5.10165,4.08779 1.38671,1.34692 2.09411,3.00691 2.47715,4.86498 0.33916,1.85513 0.27242,3.69383 -0.16161,5.52078 -2.04175,5.03093 -8.354,6.04703 -13.00805,8.68398 -0.75425,0.42736 -1.7108,0.0336 -2.40845,-0.24697 -1.6959,-1.04466 -2.22414,-2.68248 -2.08943,-4.57741 0.3008,-1.51748 1.03553,-2.93614 1.8808,-4.22157 3.68893,-4.18895 12.23004,-11.75006 14.69965,-5.05467 0.53859,1.67548 -0.006,3.22758 -0.54661,4.81153 -2.33255,6.58987 -11.10848,9.22316 -16.12671,12.14484 -4.73032,1.91476 -9.73649,1.6998 -14.71851,1.28037 -5.40797,-0.71995 -2.67026,-0.31512 -8.21207,-1.22157 0,0 10.73934,-7.54991 10.73934,-7.54991 v 0 c 5.54032,0.83342 2.80419,0.47609 8.20717,1.0813 4.93994,0.24335 9.9707,0.24559 14.48624,-2.05647 -20.40252,12.06647 -8.68057,6.7303 -6.66871,2.10959 0.4011,-1.31882 1.20819,-2.61485 0.91666,-4.02777 -0.0331,-0.11548 -0.12255,-0.60086 -0.29324,-0.71773 -0.14034,-0.0961 -0.62371,0.26767 -0.47658,0.18233 11.40009,-6.61224 15.16545,-8.08272 10.54739,-6.23639 -1.11954,0.81384 -1.65283,2.29637 -2.20932,3.51999 -0.39132,1.14467 -0.29035,2.39227 1.04657,2.78263 0.95733,-0.0233 2.19697,-0.79122 1.80238,-0.55548 -23.56336,14.07773 -12.77977,8.53797 -9.86581,5.64986 0.69751,-1.56363 0.6876,-3.23491 0.46628,-4.91211 -0.26724,-1.66758 -0.87105,-3.06222 -2.10468,-4.26385 -1.33522,-1.54396 -3.03804,-2.70723 -4.83653,-3.65861 -1.85267,-1.06688 -3.56377,-2.35798 -5.37883,-3.48759 -1.62921,-0.96642 -3.51214,-1.97291 -5.45349,-1.7965 -4.80207,1.61313 -0.67753,0.29291 9.84814,-6.03371 0.24538,-0.14749 -0.54694,0.19303 -0.7803,0.35888 -0.74207,0.52741 -0.9951,1.47872 -1.51233,2.18059 -0.76869,2.47565 -0.35819,5.08601 -0.15434,7.6294 0.43739,2.95329 1.32838,5.72525 3.25505,8.07601 1.86351,2.09635 3.51792,4.40209 5.70418,6.18728 1.79363,1.24519 3.5383,2.4179 5.81866,1.82277 4.35444,-1.4152 10.57946,-5.91522 -9.19909,5.68539 -1.03704,0.60824 3.02664,-1.613 2.13675,-1.68456 1.10305,-1.23229 2.38637,-2.29314 2.47994,-4.06717 0.27926,-1.73713 0.26162,-3.42631 -0.28943,-5.12453 -0.49449,-1.39258 -1.10797,-2.84524 -2.35257,-3.72265 -1.22639,-0.70725 -2.57087,-1.16258 -3.90787,-1.61421 -1.5251,-0.45572 -3.00186,-1.16875 -4.62577,-1.15462 -1.8295,-6e-5 -3.65901,-1.6e-4 -5.48852,-7.2e-4 -1.85584,-6.2e-4 -3.71168,-0.002 -5.56753,-0.001 -1.77398,0.002 -3.54838,-0.002 -5.32188,0.0446 11.7869,-9.03672 6.58494,-7.91082 15.49857,-7.95875 4.5326,-0.11461 9.11131,-0.34536 13.49573,-1.59871 5.66075,-2.18269 2.46561,-1.08479 -7.39538,4.78753 -0.67921,0.40448 1.39397,-0.7481 2.06652,-1.16355 0.3125,-0.19304 3.50343,-2.36476 3.8515,-2.63686 0.46574,-0.36409 0.87757,-0.79232 1.31636,-1.18848 0,0 12.49313,-5.28755 12.49313,-5.28755 z"
     inkscape:connector-curvature="0" />
  <path
     style="fill:#ff0000"
     id="path4685"
     d="m 715.18324,17.384641 c -4.29481,2.48399 -8.58129,4.98245 -12.88444,7.451968 -7.67247,4.403126 14.56926,-8.525764 6.70876,-3.864859 -0.54552,0.323464 -1.08521,0.656882 -1.63556,0.972048 -4.38051,2.508577 -8.77119,4.999361 -13.15679,7.499042 -3.52935,1.835752 -7.26028,3.24453 -10.90033,4.839872 -3.59224,1.021427 -6.84934,2.826493 -10.2402,4.326951 -2.19876,1.092859 -4.34221,2.261331 -6.59837,3.247981 -3.11136,1.234057 -6.17895,2.522203 -9.2049,3.953167 -4.8021,2.249191 -17.00049,9.497398 2.98889,-2.028863 -3.00794,1.933384 -6.10523,3.724157 -9.12233,5.641966 -1.8353,1.115771 -3.43107,2.551287 -5.10007,3.886298 -1.11638,0.755827 -2.06868,1.710906 -3.08738,2.592158 -1.02397,0.788843 -2.01386,1.63601 -2.91223,2.56729 -1.13032,1.322271 -2.26186,2.642171 -3.38526,3.97124 -1.43194,1.47149 -2.88991,2.93223 -4.51954,4.185063 2.84314,-1.697865 -9.74195,9.546454 -13.94715,6.542236 -0.45168,-0.322681 -0.86177,-0.854061 -1.2168,-1.269701 0,0 11.62659,-7.053543 11.62659,-7.053543 v 0 c 0.21666,0.216179 0.48604,0.582767 0.83525,0.643751 0.35242,0.06155 0.64144,-0.133662 0.94093,-0.269026 -3.62266,2.116435 -7.24533,4.23287 -10.86799,6.349304 1.77097,-1.01694 3.13804,-2.492648 4.61567,-3.884319 1.24181,-1.206985 2.28623,-2.60303 3.37826,-3.93983 0.86283,-1.036634 1.81251,-1.913697 2.79848,-2.819478 1.17748,-0.735027 2.12406,-1.675131 3.08224,-2.663206 1.91249,-1.038461 3.26557,-2.874859 5.19884,-3.913716 2.91678,-2.09627 6.1975,-3.645551 9.12184,-5.742038 6.60303,-3.812839 13.1669,-7.938704 20.1054,-11.179299 3.05096,-1.423659 6.19576,-2.614041 9.27309,-3.978817 2.22199,-1.026928 4.32857,-2.276595 6.58049,-3.240344 3.34213,-1.559074 6.70978,-3.030762 10.19268,-4.256524 3.65598,-1.552987 7.35021,-3.046332 10.84998,-4.934405 -3.29117,1.921977 -6.57637,3.854209 -9.87351,5.765932 -0.5503,0.319074 1.085,-0.664438 1.63277,-0.987845 0.55074,-0.325161 1.10947,-0.636597 1.66256,-0.957747 4.35506,-2.52877 8.70356,-5.06886 13.06189,-7.592008 0.53105,-0.30744 2.1361,-1.20885 1.60606,-0.899653 -3.41219,1.990517 -6.83516,3.96249 -10.25274,5.943734 0,0 12.64492,-4.90478 12.64492,-4.90478 z"
     inkscape:connector-curvature="0" />
  <path
     style="fill:#ff0000"
     id="path4687"
     d="m 636.82328,13.816377 c 2.81067,0.961809 5.69488,1.763706 8.2895,3.237347 2.02225,1.09565 3.80574,2.535732 5.69505,3.826255 2.07225,1.363068 3.99146,2.926836 6.04359,4.316624 3.00621,1.758754 5.81209,3.830927 8.81103,5.608758 2.0548,1.278845 3.99844,2.722241 6.01634,4.059712 1.54628,1.285192 3.40001,2.050292 5.12404,3.030892 1.8806,1.558458 3.94313,2.826811 5.93176,4.230197 2.21095,1.509728 4.49516,2.910117 6.75377,4.347961 2.18943,1.073858 4.02473,2.68333 5.8521,4.269517 2.17565,2.184711 4.60558,4.090258 6.84958,6.195929 1.77719,1.496689 3.53923,3.03766 5.26493,4.601544 1.72113,1.680446 3.61176,3.182652 5.55479,4.596164 1.34774,0.855704 2.7186,1.643456 4.13141,2.383822 1.57225,0.367419 3.03075,0.903325 4.52397,1.524887 1.92489,0.970956 3.60459,2.339098 5.46188,3.427781 1.7585,1.246976 3.60159,2.352571 5.39758,3.536307 1.27887,0.895156 2.76692,1.065342 4.27671,1.209523 0,0 -11.06696,7.824492 -11.06696,7.824492 v 0 c -1.66339,-0.268797 -3.24851,-0.678391 -4.62945,-1.69882 -1.80911,-1.14345 -3.55661,-2.368099 -5.36459,-3.512794 -1.76802,-1.110003 -3.43531,-2.412695 -5.36217,-3.241325 -1.52744,-0.622052 -3.1548,-0.893756 -4.63191,-1.633382 -1.42802,-0.814246 -2.8675,-1.599292 -4.19693,-2.57437 -1.92546,-1.495944 -3.84847,-3.005226 -5.60334,-4.702154 -1.75236,-1.550003 -3.49586,-3.110607 -5.26749,-4.636829 -2.2282,-2.090267 -4.56789,-4.064787 -6.80077,-6.151598 -1.81313,-1.521726 -3.67478,-2.981907 -5.77409,-4.094851 -2.26958,-1.44326 -4.53479,-2.895147 -6.76762,-4.394219 -1.99832,-1.328278 -3.93252,-2.724697 -5.90628,-4.086047 -1.78841,-0.9406 -3.5502,-1.918757 -5.1723,-3.135433 -1.99528,-1.322854 -3.86677,-2.821738 -5.91525,-4.063001 -2.9771,-1.860807 -5.84746,-3.891588 -8.89246,-5.642115 -2.04025,-1.411468 -3.98834,-2.9519 -6.0605,-4.319671 -1.8258,-1.298321 -3.6441,-2.615068 -5.60528,-3.705932 -2.55383,-1.323184 -5.33238,-2.175528 -8.1075,-2.903153 0,0 11.14686,-7.732018 11.14686,-7.732018 z"
     inkscape:connector-curvature="0" />
  <flowRoot
     xml:space="preserve"
     id="flowRoot4693"
     style="font-style:normal;font-weight:normal;font-size:40px;line-height:1.25;font-family:sans-serif;letter-spacing:0px;word-spacing:0px;fill:#000000;fill-opacity:1;stroke:none"><flowRegion
       id="flowRegion4695"><rect
         id="rect4697"
         width="728.00348"
         height="108.69813"
         x="43.844627"
         y="199.23637" /></flowRegion><flowPara
       id="flowPara4699"
       style="fill:#ffffff">use what u can,</flowPara><flowPara
       id="flowPara4701"
       style="fill:#ffffff">sometimes that should be enough</flowPara></flowRoot>  <rect
     style="fill:#ffffff"
     id="rect4707"
     width="692.3797"
     height="7.3074374"
     x="45.671486"
     y="310.6748" />
</svg>
